<mxfile host="Electron" modified="2023-12-12T13:27:36.556Z" agent="Mozilla/5.0 (Windows NT 10.0; Win64; x64) AppleWebKit/537.36 (KHTML, like Gecko) draw.io/21.6.8 Chrome/114.0.5735.289 Electron/25.5.0 Safari/537.36" etag="jXDQK-0Ll5Sr51TNySSI" version="21.6.8" type="device">
  <diagram name="Page-1" id="moG2qmu7YmXrYTg2Tc04">
    <mxGraphModel dx="3387" dy="2058" grid="1" gridSize="10" guides="1" tooltips="1" connect="1" arrows="1" fold="1" page="1" pageScale="1" pageWidth="850" pageHeight="1100" math="0" shadow="0">
      <root>
        <mxCell id="0" />
        <mxCell id="1" parent="0" />
        <mxCell id="2EdYx-QQGdsCaBUIHvsT-23" style="edgeStyle=orthogonalEdgeStyle;rounded=0;orthogonalLoop=1;jettySize=auto;html=1;exitX=0;exitY=0.25;exitDx=0;exitDy=0;" parent="1" source="2EdYx-QQGdsCaBUIHvsT-1" target="2EdYx-QQGdsCaBUIHvsT-16" edge="1">
          <mxGeometry relative="1" as="geometry" />
        </mxCell>
        <mxCell id="2EdYx-QQGdsCaBUIHvsT-83" style="edgeStyle=orthogonalEdgeStyle;rounded=0;orthogonalLoop=1;jettySize=auto;html=1;" parent="1" edge="1">
          <mxGeometry relative="1" as="geometry">
            <mxPoint x="750" y="-240" as="targetPoint" />
            <mxPoint x="500" y="-240" as="sourcePoint" />
          </mxGeometry>
        </mxCell>
        <mxCell id="GQeTn8wQc1jE0vWEfusg-205" style="edgeStyle=orthogonalEdgeStyle;rounded=0;orthogonalLoop=1;jettySize=auto;html=1;exitX=0;exitY=0.5;exitDx=0;exitDy=0;" edge="1" parent="1">
          <mxGeometry relative="1" as="geometry">
            <mxPoint x="200" y="-464" as="targetPoint" />
            <mxPoint x="355" y="-209" as="sourcePoint" />
          </mxGeometry>
        </mxCell>
        <mxCell id="2EdYx-QQGdsCaBUIHvsT-1" value="Data&lt;br&gt;&lt;br&gt;Included&lt;br&gt;&lt;br&gt;Meta&amp;nbsp;&lt;br&gt;&lt;br&gt;Links" style="rounded=1;whiteSpace=wrap;html=1;" parent="1" vertex="1">
          <mxGeometry x="355" y="-300" width="145" height="150" as="geometry" />
        </mxCell>
        <mxCell id="2EdYx-QQGdsCaBUIHvsT-16" value="Data" style="swimlane;startSize=20;horizontal=1;containerType=tree;newEdgeStyle={&quot;edgeStyle&quot;:&quot;elbowEdgeStyle&quot;,&quot;startArrow&quot;:&quot;none&quot;,&quot;endArrow&quot;:&quot;none&quot;};" parent="1" vertex="1">
          <mxGeometry x="-70" y="-90" width="360" height="220" as="geometry" />
        </mxCell>
        <mxCell id="2EdYx-QQGdsCaBUIHvsT-25" style="edgeStyle=orthogonalEdgeStyle;rounded=0;orthogonalLoop=1;jettySize=auto;html=1;" parent="2EdYx-QQGdsCaBUIHvsT-16" source="2EdYx-QQGdsCaBUIHvsT-24" edge="1">
          <mxGeometry relative="1" as="geometry">
            <mxPoint x="-200" y="125" as="targetPoint" />
          </mxGeometry>
        </mxCell>
        <mxCell id="2EdYx-QQGdsCaBUIHvsT-24" value="Product 1" style="strokeWidth=2;html=1;shape=mxgraph.flowchart.multi-document;whiteSpace=wrap;" parent="2EdYx-QQGdsCaBUIHvsT-16" vertex="1">
          <mxGeometry x="70" y="50" width="170" height="150" as="geometry" />
        </mxCell>
        <mxCell id="2EdYx-QQGdsCaBUIHvsT-29" value="Product" style="swimlane;fontStyle=1;align=center;verticalAlign=top;childLayout=stackLayout;horizontal=1;startSize=26;horizontalStack=0;resizeParent=1;resizeParentMax=0;resizeLast=0;collapsible=1;marginBottom=0;whiteSpace=wrap;html=1;" parent="1" vertex="1">
          <mxGeometry x="-560" y="-10" width="290" height="130" as="geometry" />
        </mxCell>
        <mxCell id="2EdYx-QQGdsCaBUIHvsT-30" value="+ field: Id" style="text;strokeColor=none;fillColor=none;align=left;verticalAlign=top;spacingLeft=4;spacingRight=4;overflow=hidden;rotatable=0;points=[[0,0.5],[1,0.5]];portConstraint=eastwest;whiteSpace=wrap;html=1;" parent="2EdYx-QQGdsCaBUIHvsT-29" vertex="1">
          <mxGeometry y="26" width="290" height="26" as="geometry" />
        </mxCell>
        <mxCell id="2EdYx-QQGdsCaBUIHvsT-32" value="+ filed: Type&lt;br&gt;" style="text;strokeColor=none;fillColor=none;align=left;verticalAlign=top;spacingLeft=4;spacingRight=4;overflow=hidden;rotatable=0;points=[[0,0.5],[1,0.5]];portConstraint=eastwest;whiteSpace=wrap;html=1;" parent="2EdYx-QQGdsCaBUIHvsT-29" vertex="1">
          <mxGeometry y="52" width="290" height="26" as="geometry" />
        </mxCell>
        <mxCell id="2EdYx-QQGdsCaBUIHvsT-35" style="edgeStyle=orthogonalEdgeStyle;rounded=0;orthogonalLoop=1;jettySize=auto;html=1;" parent="2EdYx-QQGdsCaBUIHvsT-29" source="2EdYx-QQGdsCaBUIHvsT-33" edge="1">
          <mxGeometry relative="1" as="geometry">
            <mxPoint x="-130" y="240" as="targetPoint" />
          </mxGeometry>
        </mxCell>
        <mxCell id="2EdYx-QQGdsCaBUIHvsT-33" value="+ filed: List&amp;lt;Attributes&amp;gt;" style="text;strokeColor=none;fillColor=none;align=left;verticalAlign=top;spacingLeft=4;spacingRight=4;overflow=hidden;rotatable=0;points=[[0,0.5],[1,0.5]];portConstraint=eastwest;whiteSpace=wrap;html=1;" parent="2EdYx-QQGdsCaBUIHvsT-29" vertex="1">
          <mxGeometry y="78" width="290" height="26" as="geometry" />
        </mxCell>
        <mxCell id="2EdYx-QQGdsCaBUIHvsT-36" style="edgeStyle=orthogonalEdgeStyle;rounded=0;orthogonalLoop=1;jettySize=auto;html=1;" parent="2EdYx-QQGdsCaBUIHvsT-29" source="2EdYx-QQGdsCaBUIHvsT-34" edge="1">
          <mxGeometry relative="1" as="geometry">
            <mxPoint x="340" y="290" as="targetPoint" />
          </mxGeometry>
        </mxCell>
        <mxCell id="2EdYx-QQGdsCaBUIHvsT-34" value="+ filed: List&amp;lt;Relationships&amp;gt;" style="text;strokeColor=none;fillColor=none;align=left;verticalAlign=top;spacingLeft=4;spacingRight=4;overflow=hidden;rotatable=0;points=[[0,0.5],[1,0.5]];portConstraint=eastwest;whiteSpace=wrap;html=1;" parent="2EdYx-QQGdsCaBUIHvsT-29" vertex="1">
          <mxGeometry y="104" width="290" height="26" as="geometry" />
        </mxCell>
        <mxCell id="2EdYx-QQGdsCaBUIHvsT-37" value="Attribute" style="swimlane;fontStyle=1;align=center;verticalAlign=top;childLayout=stackLayout;horizontal=1;startSize=26;horizontalStack=0;resizeParent=1;resizeParentMax=0;resizeLast=0;collapsible=1;marginBottom=0;whiteSpace=wrap;html=1;" parent="1" vertex="1">
          <mxGeometry x="-770" y="230" width="160" height="470" as="geometry" />
        </mxCell>
        <mxCell id="2EdYx-QQGdsCaBUIHvsT-38" value="&lt;div style=&quot;background-color: rgb(255, 255, 254); line-height: 18px;&quot;&gt;name&lt;/div&gt;" style="text;strokeColor=none;fillColor=none;align=left;verticalAlign=top;spacingLeft=4;spacingRight=4;overflow=hidden;rotatable=0;points=[[0,0.5],[1,0.5]];portConstraint=eastwest;whiteSpace=wrap;html=1;" parent="2EdYx-QQGdsCaBUIHvsT-37" vertex="1">
          <mxGeometry y="26" width="160" height="26" as="geometry" />
        </mxCell>
        <mxCell id="2EdYx-QQGdsCaBUIHvsT-40" value="&lt;div style=&quot;background-color: rgb(255, 255, 254); line-height: 18px;&quot;&gt;description&lt;/div&gt;" style="text;strokeColor=none;fillColor=none;align=left;verticalAlign=top;spacingLeft=4;spacingRight=4;overflow=hidden;rotatable=0;points=[[0,0.5],[1,0.5]];portConstraint=eastwest;whiteSpace=wrap;html=1;" parent="2EdYx-QQGdsCaBUIHvsT-37" vertex="1">
          <mxGeometry y="52" width="160" height="26" as="geometry" />
        </mxCell>
        <mxCell id="2EdYx-QQGdsCaBUIHvsT-41" value="&lt;div style=&quot;background-color: rgb(255, 255, 254); line-height: 18px;&quot;&gt;&lt;div style=&quot;line-height: 18px;&quot;&gt;available_on&lt;/div&gt;&lt;/div&gt;" style="text;strokeColor=none;fillColor=none;align=left;verticalAlign=top;spacingLeft=4;spacingRight=4;overflow=hidden;rotatable=0;points=[[0,0.5],[1,0.5]];portConstraint=eastwest;whiteSpace=wrap;html=1;" parent="2EdYx-QQGdsCaBUIHvsT-37" vertex="1">
          <mxGeometry y="78" width="160" height="26" as="geometry" />
        </mxCell>
        <mxCell id="2EdYx-QQGdsCaBUIHvsT-42" value="&lt;div style=&quot;background-color: rgb(255, 255, 254); line-height: 18px;&quot;&gt;&lt;div style=&quot;line-height: 18px;&quot;&gt;slug&lt;/div&gt;&lt;/div&gt;" style="text;strokeColor=none;fillColor=none;align=left;verticalAlign=top;spacingLeft=4;spacingRight=4;overflow=hidden;rotatable=0;points=[[0,0.5],[1,0.5]];portConstraint=eastwest;whiteSpace=wrap;html=1;" parent="2EdYx-QQGdsCaBUIHvsT-37" vertex="1">
          <mxGeometry y="104" width="160" height="28" as="geometry" />
        </mxCell>
        <mxCell id="2EdYx-QQGdsCaBUIHvsT-43" value="&lt;div style=&quot;background-color: rgb(255, 255, 254); line-height: 18px;&quot;&gt;&lt;div style=&quot;line-height: 18px;&quot;&gt;meta_description&lt;/div&gt;&lt;/div&gt;" style="text;strokeColor=none;fillColor=none;align=left;verticalAlign=top;spacingLeft=4;spacingRight=4;overflow=hidden;rotatable=0;points=[[0,0.5],[1,0.5]];portConstraint=eastwest;whiteSpace=wrap;html=1;" parent="2EdYx-QQGdsCaBUIHvsT-37" vertex="1">
          <mxGeometry y="132" width="160" height="26" as="geometry" />
        </mxCell>
        <mxCell id="2EdYx-QQGdsCaBUIHvsT-44" value="&lt;div style=&quot;background-color: rgb(255, 255, 254); line-height: 18px;&quot;&gt;&lt;div style=&quot;line-height: 18px;&quot;&gt;meta_keywords&lt;/div&gt;&lt;/div&gt;" style="text;strokeColor=none;fillColor=none;align=left;verticalAlign=top;spacingLeft=4;spacingRight=4;overflow=hidden;rotatable=0;points=[[0,0.5],[1,0.5]];portConstraint=eastwest;whiteSpace=wrap;html=1;" parent="2EdYx-QQGdsCaBUIHvsT-37" vertex="1">
          <mxGeometry y="158" width="160" height="26" as="geometry" />
        </mxCell>
        <mxCell id="2EdYx-QQGdsCaBUIHvsT-45" value="&lt;div style=&quot;background-color: rgb(255, 255, 254); line-height: 18px;&quot;&gt;&lt;div style=&quot;line-height: 18px;&quot;&gt;updated_at&lt;/div&gt;&lt;/div&gt;" style="text;strokeColor=none;fillColor=none;align=left;verticalAlign=top;spacingLeft=4;spacingRight=4;overflow=hidden;rotatable=0;points=[[0,0.5],[1,0.5]];portConstraint=eastwest;whiteSpace=wrap;html=1;" parent="2EdYx-QQGdsCaBUIHvsT-37" vertex="1">
          <mxGeometry y="184" width="160" height="26" as="geometry" />
        </mxCell>
        <mxCell id="2EdYx-QQGdsCaBUIHvsT-46" value="&lt;div style=&quot;background-color: rgb(255, 255, 254); line-height: 18px;&quot;&gt;&lt;div style=&quot;line-height: 18px;&quot;&gt;sku&lt;/div&gt;&lt;/div&gt;" style="text;strokeColor=none;fillColor=none;align=left;verticalAlign=top;spacingLeft=4;spacingRight=4;overflow=hidden;rotatable=0;points=[[0,0.5],[1,0.5]];portConstraint=eastwest;whiteSpace=wrap;html=1;" parent="2EdYx-QQGdsCaBUIHvsT-37" vertex="1">
          <mxGeometry y="210" width="160" height="26" as="geometry" />
        </mxCell>
        <mxCell id="2EdYx-QQGdsCaBUIHvsT-47" value="&lt;div style=&quot;background-color: rgb(255, 255, 254); line-height: 18px;&quot;&gt;&lt;div style=&quot;line-height: 18px;&quot;&gt;public_metadata { }&lt;/div&gt;&lt;/div&gt;" style="text;strokeColor=none;fillColor=none;align=left;verticalAlign=top;spacingLeft=4;spacingRight=4;overflow=hidden;rotatable=0;points=[[0,0.5],[1,0.5]];portConstraint=eastwest;whiteSpace=wrap;html=1;" parent="2EdYx-QQGdsCaBUIHvsT-37" vertex="1">
          <mxGeometry y="236" width="160" height="26" as="geometry" />
        </mxCell>
        <mxCell id="2EdYx-QQGdsCaBUIHvsT-48" value="&lt;div style=&quot;background-color: rgb(255, 255, 254); line-height: 18px;&quot;&gt;&lt;div style=&quot;line-height: 18px;&quot;&gt;purchasable&lt;/div&gt;&lt;/div&gt;" style="text;strokeColor=none;fillColor=none;align=left;verticalAlign=top;spacingLeft=4;spacingRight=4;overflow=hidden;rotatable=0;points=[[0,0.5],[1,0.5]];portConstraint=eastwest;whiteSpace=wrap;html=1;" parent="2EdYx-QQGdsCaBUIHvsT-37" vertex="1">
          <mxGeometry y="262" width="160" height="26" as="geometry" />
        </mxCell>
        <mxCell id="2EdYx-QQGdsCaBUIHvsT-49" value="&lt;div style=&quot;background-color: rgb(255, 255, 254); line-height: 18px;&quot;&gt;&lt;div style=&quot;line-height: 18px;&quot;&gt;in_stock&lt;/div&gt;&lt;/div&gt;" style="text;strokeColor=none;fillColor=none;align=left;verticalAlign=top;spacingLeft=4;spacingRight=4;overflow=hidden;rotatable=0;points=[[0,0.5],[1,0.5]];portConstraint=eastwest;whiteSpace=wrap;html=1;" parent="2EdYx-QQGdsCaBUIHvsT-37" vertex="1">
          <mxGeometry y="288" width="160" height="26" as="geometry" />
        </mxCell>
        <mxCell id="2EdYx-QQGdsCaBUIHvsT-50" value="&lt;div style=&quot;background-color: rgb(255, 255, 254); line-height: 18px;&quot;&gt;&lt;div style=&quot;line-height: 18px;&quot;&gt;backorderable&lt;/div&gt;&lt;/div&gt;" style="text;strokeColor=none;fillColor=none;align=left;verticalAlign=top;spacingLeft=4;spacingRight=4;overflow=hidden;rotatable=0;points=[[0,0.5],[1,0.5]];portConstraint=eastwest;whiteSpace=wrap;html=1;" parent="2EdYx-QQGdsCaBUIHvsT-37" vertex="1">
          <mxGeometry y="314" width="160" height="26" as="geometry" />
        </mxCell>
        <mxCell id="2EdYx-QQGdsCaBUIHvsT-51" value="&lt;div style=&quot;background-color: rgb(255, 255, 254); line-height: 18px;&quot;&gt;&lt;div style=&quot;line-height: 18px;&quot;&gt;available&lt;/div&gt;&lt;/div&gt;" style="text;strokeColor=none;fillColor=none;align=left;verticalAlign=top;spacingLeft=4;spacingRight=4;overflow=hidden;rotatable=0;points=[[0,0.5],[1,0.5]];portConstraint=eastwest;whiteSpace=wrap;html=1;" parent="2EdYx-QQGdsCaBUIHvsT-37" vertex="1">
          <mxGeometry y="340" width="160" height="26" as="geometry" />
        </mxCell>
        <mxCell id="2EdYx-QQGdsCaBUIHvsT-52" value="&lt;div style=&quot;background-color: rgb(255, 255, 254); line-height: 18px;&quot;&gt;&lt;div style=&quot;line-height: 18px;&quot;&gt;&lt;div style=&quot;line-height: 18px;&quot;&gt;price&lt;/div&gt;&lt;/div&gt;&lt;/div&gt;" style="text;strokeColor=none;fillColor=none;align=left;verticalAlign=top;spacingLeft=4;spacingRight=4;overflow=hidden;rotatable=0;points=[[0,0.5],[1,0.5]];portConstraint=eastwest;whiteSpace=wrap;html=1;" parent="2EdYx-QQGdsCaBUIHvsT-37" vertex="1">
          <mxGeometry y="366" width="160" height="26" as="geometry" />
        </mxCell>
        <mxCell id="2EdYx-QQGdsCaBUIHvsT-53" value="&lt;div style=&quot;background-color: rgb(255, 255, 254); line-height: 18px;&quot;&gt;&lt;div style=&quot;line-height: 18px;&quot;&gt;display_price&lt;/div&gt;&lt;/div&gt;" style="text;strokeColor=none;fillColor=none;align=left;verticalAlign=top;spacingLeft=4;spacingRight=4;overflow=hidden;rotatable=0;points=[[0,0.5],[1,0.5]];portConstraint=eastwest;whiteSpace=wrap;html=1;" parent="2EdYx-QQGdsCaBUIHvsT-37" vertex="1">
          <mxGeometry y="392" width="160" height="26" as="geometry" />
        </mxCell>
        <mxCell id="2EdYx-QQGdsCaBUIHvsT-54" value="&lt;div style=&quot;background-color: rgb(255, 255, 254); line-height: 18px;&quot;&gt;&lt;div style=&quot;line-height: 18px;&quot;&gt;compare_at_price&lt;/div&gt;&lt;/div&gt;" style="text;strokeColor=none;fillColor=none;align=left;verticalAlign=top;spacingLeft=4;spacingRight=4;overflow=hidden;rotatable=0;points=[[0,0.5],[1,0.5]];portConstraint=eastwest;whiteSpace=wrap;html=1;" parent="2EdYx-QQGdsCaBUIHvsT-37" vertex="1">
          <mxGeometry y="418" width="160" height="26" as="geometry" />
        </mxCell>
        <mxCell id="2EdYx-QQGdsCaBUIHvsT-55" value="&lt;div style=&quot;background-color: rgb(255, 255, 254); line-height: 18px;&quot;&gt;&lt;div style=&quot;line-height: 18px;&quot;&gt;&lt;div style=&quot;line-height: 18px;&quot;&gt;display_compare_at_price&lt;/div&gt;&lt;/div&gt;&lt;/div&gt;" style="text;strokeColor=none;fillColor=none;align=left;verticalAlign=top;spacingLeft=4;spacingRight=4;overflow=hidden;rotatable=0;points=[[0,0.5],[1,0.5]];portConstraint=eastwest;whiteSpace=wrap;html=1;" parent="2EdYx-QQGdsCaBUIHvsT-37" vertex="1">
          <mxGeometry y="444" width="160" height="26" as="geometry" />
        </mxCell>
        <mxCell id="2EdYx-QQGdsCaBUIHvsT-56" value="Relationship" style="swimlane;fontStyle=1;align=center;verticalAlign=top;childLayout=stackLayout;horizontal=1;startSize=26;horizontalStack=0;resizeParent=1;resizeParentMax=0;resizeLast=0;collapsible=1;marginBottom=0;whiteSpace=wrap;html=1;" parent="1" vertex="1">
          <mxGeometry x="-330" y="280" width="260" height="236" as="geometry" />
        </mxCell>
        <mxCell id="2EdYx-QQGdsCaBUIHvsT-65" style="edgeStyle=orthogonalEdgeStyle;rounded=0;orthogonalLoop=1;jettySize=auto;html=1;" parent="2EdYx-QQGdsCaBUIHvsT-56" source="2EdYx-QQGdsCaBUIHvsT-57" edge="1">
          <mxGeometry relative="1" as="geometry">
            <mxPoint x="450" y="48" as="targetPoint" />
          </mxGeometry>
        </mxCell>
        <mxCell id="2EdYx-QQGdsCaBUIHvsT-57" value="&lt;div style=&quot;background-color: rgb(255, 255, 254); line-height: 18px;&quot;&gt;variants&amp;nbsp;&amp;nbsp;&lt;/div&gt;&amp;nbsp;{ List&amp;lt;Data&amp;gt; }" style="text;strokeColor=none;fillColor=none;align=left;verticalAlign=top;spacingLeft=4;spacingRight=4;overflow=hidden;rotatable=0;points=[[0,0.5],[1,0.5]];portConstraint=eastwest;whiteSpace=wrap;html=1;" parent="2EdYx-QQGdsCaBUIHvsT-56" vertex="1">
          <mxGeometry y="26" width="260" height="44" as="geometry" />
        </mxCell>
        <mxCell id="2EdYx-QQGdsCaBUIHvsT-71" style="edgeStyle=orthogonalEdgeStyle;rounded=0;orthogonalLoop=1;jettySize=auto;html=1;" parent="2EdYx-QQGdsCaBUIHvsT-56" source="2EdYx-QQGdsCaBUIHvsT-59" edge="1">
          <mxGeometry relative="1" as="geometry">
            <mxPoint x="450" y="84" as="targetPoint" />
          </mxGeometry>
        </mxCell>
        <mxCell id="2EdYx-QQGdsCaBUIHvsT-59" value="&lt;div style=&quot;background-color: rgb(255, 255, 254); line-height: 18px;&quot;&gt;option_types { List&amp;lt;Data&amp;gt; }&lt;/div&gt;" style="text;strokeColor=none;fillColor=none;align=left;verticalAlign=top;spacingLeft=4;spacingRight=4;overflow=hidden;rotatable=0;points=[[0,0.5],[1,0.5]];portConstraint=eastwest;whiteSpace=wrap;html=1;" parent="2EdYx-QQGdsCaBUIHvsT-56" vertex="1">
          <mxGeometry y="70" width="260" height="28" as="geometry" />
        </mxCell>
        <mxCell id="2EdYx-QQGdsCaBUIHvsT-60" value="&lt;div style=&quot;background-color: rgb(255, 255, 254); line-height: 18px;&quot;&gt;&lt;div style=&quot;line-height: 18px;&quot;&gt;product_properties { List&amp;lt;Data&amp;gt; }&lt;/div&gt;&lt;/div&gt;" style="text;strokeColor=none;fillColor=none;align=left;verticalAlign=top;spacingLeft=4;spacingRight=4;overflow=hidden;rotatable=0;points=[[0,0.5],[1,0.5]];portConstraint=eastwest;whiteSpace=wrap;html=1;" parent="2EdYx-QQGdsCaBUIHvsT-56" vertex="1">
          <mxGeometry y="98" width="260" height="34" as="geometry" />
        </mxCell>
        <mxCell id="2EdYx-QQGdsCaBUIHvsT-73" style="edgeStyle=orthogonalEdgeStyle;rounded=0;orthogonalLoop=1;jettySize=auto;html=1;" parent="2EdYx-QQGdsCaBUIHvsT-56" source="2EdYx-QQGdsCaBUIHvsT-61" edge="1">
          <mxGeometry relative="1" as="geometry">
            <mxPoint x="450" y="145" as="targetPoint" />
          </mxGeometry>
        </mxCell>
        <mxCell id="2EdYx-QQGdsCaBUIHvsT-61" value="&lt;div style=&quot;background-color: rgb(255, 255, 254); line-height: 18px;&quot;&gt;&lt;div style=&quot;line-height: 18px;&quot;&gt;taxons&amp;nbsp; { List&amp;lt;Data&amp;gt; }&lt;/div&gt;&lt;/div&gt;" style="text;strokeColor=none;fillColor=none;align=left;verticalAlign=top;spacingLeft=4;spacingRight=4;overflow=hidden;rotatable=0;points=[[0,0.5],[1,0.5]];portConstraint=eastwest;whiteSpace=wrap;html=1;" parent="2EdYx-QQGdsCaBUIHvsT-56" vertex="1">
          <mxGeometry y="132" width="260" height="26" as="geometry" />
        </mxCell>
        <mxCell id="2EdYx-QQGdsCaBUIHvsT-74" style="edgeStyle=orthogonalEdgeStyle;rounded=0;orthogonalLoop=1;jettySize=auto;html=1;" parent="2EdYx-QQGdsCaBUIHvsT-56" source="2EdYx-QQGdsCaBUIHvsT-62" edge="1">
          <mxGeometry relative="1" as="geometry">
            <mxPoint x="450" y="171" as="targetPoint" />
          </mxGeometry>
        </mxCell>
        <mxCell id="2EdYx-QQGdsCaBUIHvsT-62" value="&lt;div style=&quot;background-color: rgb(255, 255, 254); line-height: 18px;&quot;&gt;&lt;div style=&quot;line-height: 18px;&quot;&gt;images&amp;nbsp; { List&amp;lt;Data&amp;gt; }&lt;/div&gt;&lt;/div&gt;" style="text;strokeColor=none;fillColor=none;align=left;verticalAlign=top;spacingLeft=4;spacingRight=4;overflow=hidden;rotatable=0;points=[[0,0.5],[1,0.5]];portConstraint=eastwest;whiteSpace=wrap;html=1;" parent="2EdYx-QQGdsCaBUIHvsT-56" vertex="1">
          <mxGeometry y="158" width="260" height="26" as="geometry" />
        </mxCell>
        <mxCell id="2EdYx-QQGdsCaBUIHvsT-75" style="edgeStyle=orthogonalEdgeStyle;rounded=0;orthogonalLoop=1;jettySize=auto;html=1;" parent="2EdYx-QQGdsCaBUIHvsT-56" source="2EdYx-QQGdsCaBUIHvsT-63" edge="1">
          <mxGeometry relative="1" as="geometry">
            <mxPoint x="450" y="197" as="targetPoint" />
          </mxGeometry>
        </mxCell>
        <mxCell id="2EdYx-QQGdsCaBUIHvsT-63" value="&lt;div style=&quot;background-color: rgb(255, 255, 254); line-height: 18px;&quot;&gt;&lt;div style=&quot;line-height: 18px;&quot;&gt;default_variant&amp;nbsp; { List&amp;lt;Data&amp;gt; }&lt;/div&gt;&lt;/div&gt;" style="text;strokeColor=none;fillColor=none;align=left;verticalAlign=top;spacingLeft=4;spacingRight=4;overflow=hidden;rotatable=0;points=[[0,0.5],[1,0.5]];portConstraint=eastwest;whiteSpace=wrap;html=1;" parent="2EdYx-QQGdsCaBUIHvsT-56" vertex="1">
          <mxGeometry y="184" width="260" height="26" as="geometry" />
        </mxCell>
        <mxCell id="2EdYx-QQGdsCaBUIHvsT-76" style="edgeStyle=orthogonalEdgeStyle;rounded=0;orthogonalLoop=1;jettySize=auto;html=1;" parent="2EdYx-QQGdsCaBUIHvsT-56" source="2EdYx-QQGdsCaBUIHvsT-64" edge="1">
          <mxGeometry relative="1" as="geometry">
            <mxPoint x="450" y="223" as="targetPoint" />
          </mxGeometry>
        </mxCell>
        <mxCell id="2EdYx-QQGdsCaBUIHvsT-64" value="&lt;div style=&quot;background-color: rgb(255, 255, 254); line-height: 18px;&quot;&gt;&lt;div style=&quot;line-height: 18px;&quot;&gt;primary_variant&amp;nbsp; { List&amp;lt;Data&amp;gt; }&lt;/div&gt;&lt;/div&gt;" style="text;strokeColor=none;fillColor=none;align=left;verticalAlign=top;spacingLeft=4;spacingRight=4;overflow=hidden;rotatable=0;points=[[0,0.5],[1,0.5]];portConstraint=eastwest;whiteSpace=wrap;html=1;" parent="2EdYx-QQGdsCaBUIHvsT-56" vertex="1">
          <mxGeometry y="210" width="260" height="26" as="geometry" />
        </mxCell>
        <mxCell id="2EdYx-QQGdsCaBUIHvsT-67" value="Data" style="swimlane;startSize=20;horizontal=1;containerType=tree;newEdgeStyle={&quot;edgeStyle&quot;:&quot;elbowEdgeStyle&quot;,&quot;startArrow&quot;:&quot;none&quot;,&quot;endArrow&quot;:&quot;none&quot;};" parent="1" vertex="1">
          <mxGeometry x="120" y="270" width="210" height="250" as="geometry" />
        </mxCell>
        <mxCell id="2EdYx-QQGdsCaBUIHvsT-77" style="edgeStyle=orthogonalEdgeStyle;rounded=0;orthogonalLoop=1;jettySize=auto;html=1;" parent="2EdYx-QQGdsCaBUIHvsT-67" source="2EdYx-QQGdsCaBUIHvsT-69" edge="1">
          <mxGeometry relative="1" as="geometry">
            <mxPoint x="105" y="370" as="targetPoint" />
          </mxGeometry>
        </mxCell>
        <mxCell id="2EdYx-QQGdsCaBUIHvsT-69" value="Type" style="strokeWidth=2;html=1;shape=mxgraph.flowchart.multi-document;whiteSpace=wrap;" parent="2EdYx-QQGdsCaBUIHvsT-67" vertex="1">
          <mxGeometry x="60" y="46" width="90" height="180" as="geometry" />
        </mxCell>
        <mxCell id="2EdYx-QQGdsCaBUIHvsT-72" style="edgeStyle=orthogonalEdgeStyle;rounded=0;orthogonalLoop=1;jettySize=auto;html=1;entryX=0;entryY=0.5;entryDx=0;entryDy=0;" parent="1" source="2EdYx-QQGdsCaBUIHvsT-60" target="2EdYx-QQGdsCaBUIHvsT-67" edge="1">
          <mxGeometry relative="1" as="geometry" />
        </mxCell>
        <mxCell id="2EdYx-QQGdsCaBUIHvsT-78" value="Type" style="swimlane;fontStyle=1;align=center;verticalAlign=top;childLayout=stackLayout;horizontal=1;startSize=26;horizontalStack=0;resizeParent=1;resizeParentMax=0;resizeLast=0;collapsible=1;marginBottom=0;whiteSpace=wrap;html=1;" parent="1" vertex="1">
          <mxGeometry x="150" y="640" width="160" height="86" as="geometry" />
        </mxCell>
        <mxCell id="2EdYx-QQGdsCaBUIHvsT-79" value="+ field: Id" style="text;strokeColor=none;fillColor=none;align=left;verticalAlign=top;spacingLeft=4;spacingRight=4;overflow=hidden;rotatable=0;points=[[0,0.5],[1,0.5]];portConstraint=eastwest;whiteSpace=wrap;html=1;" parent="2EdYx-QQGdsCaBUIHvsT-78" vertex="1">
          <mxGeometry y="26" width="160" height="26" as="geometry" />
        </mxCell>
        <mxCell id="2EdYx-QQGdsCaBUIHvsT-80" value="" style="line;strokeWidth=1;fillColor=none;align=left;verticalAlign=middle;spacingTop=-1;spacingLeft=3;spacingRight=3;rotatable=0;labelPosition=right;points=[];portConstraint=eastwest;strokeColor=inherit;" parent="2EdYx-QQGdsCaBUIHvsT-78" vertex="1">
          <mxGeometry y="52" width="160" height="8" as="geometry" />
        </mxCell>
        <mxCell id="2EdYx-QQGdsCaBUIHvsT-81" value="+ field : type" style="text;strokeColor=none;fillColor=none;align=left;verticalAlign=top;spacingLeft=4;spacingRight=4;overflow=hidden;rotatable=0;points=[[0,0.5],[1,0.5]];portConstraint=eastwest;whiteSpace=wrap;html=1;" parent="2EdYx-QQGdsCaBUIHvsT-78" vertex="1">
          <mxGeometry y="60" width="160" height="26" as="geometry" />
        </mxCell>
        <mxCell id="2EdYx-QQGdsCaBUIHvsT-90" style="edgeStyle=orthogonalEdgeStyle;rounded=0;orthogonalLoop=1;jettySize=auto;html=1;entryX=0.5;entryY=0;entryDx=0;entryDy=0;" parent="1" source="2EdYx-QQGdsCaBUIHvsT-84" edge="1">
          <mxGeometry relative="1" as="geometry">
            <mxPoint x="1170" y="-96" as="targetPoint" />
          </mxGeometry>
        </mxCell>
        <mxCell id="2EdYx-QQGdsCaBUIHvsT-84" value="Type" style="strokeWidth=2;html=1;shape=mxgraph.flowchart.multi-document;whiteSpace=wrap;" parent="1" vertex="1">
          <mxGeometry x="750" y="-270" width="90" height="180" as="geometry" />
        </mxCell>
        <mxCell id="2EdYx-QQGdsCaBUIHvsT-97" value="variant" style="swimlane;fontStyle=1;align=center;verticalAlign=top;childLayout=stackLayout;horizontal=1;startSize=26;horizontalStack=0;resizeParent=1;resizeParentMax=0;resizeLast=0;collapsible=1;marginBottom=0;whiteSpace=wrap;html=1;" parent="1" vertex="1">
          <mxGeometry x="1170" y="-160" width="290" height="130" as="geometry" />
        </mxCell>
        <mxCell id="2EdYx-QQGdsCaBUIHvsT-98" value="+ field: Id : 164" style="text;strokeColor=none;fillColor=none;align=left;verticalAlign=top;spacingLeft=4;spacingRight=4;overflow=hidden;rotatable=0;points=[[0,0.5],[1,0.5]];portConstraint=eastwest;whiteSpace=wrap;html=1;" parent="2EdYx-QQGdsCaBUIHvsT-97" vertex="1">
          <mxGeometry y="26" width="290" height="26" as="geometry" />
        </mxCell>
        <mxCell id="2EdYx-QQGdsCaBUIHvsT-99" value="+ filed: Type : variant" style="text;strokeColor=none;fillColor=none;align=left;verticalAlign=top;spacingLeft=4;spacingRight=4;overflow=hidden;rotatable=0;points=[[0,0.5],[1,0.5]];portConstraint=eastwest;whiteSpace=wrap;html=1;" parent="2EdYx-QQGdsCaBUIHvsT-97" vertex="1">
          <mxGeometry y="52" width="290" height="26" as="geometry" />
        </mxCell>
        <mxCell id="2EdYx-QQGdsCaBUIHvsT-101" style="edgeStyle=orthogonalEdgeStyle;rounded=0;orthogonalLoop=1;jettySize=auto;html=1;" parent="2EdYx-QQGdsCaBUIHvsT-97" source="2EdYx-QQGdsCaBUIHvsT-102" edge="1">
          <mxGeometry relative="1" as="geometry">
            <mxPoint x="-130" y="240" as="targetPoint" />
          </mxGeometry>
        </mxCell>
        <mxCell id="2EdYx-QQGdsCaBUIHvsT-102" value="+ filed: List&amp;lt;Attributes&amp;gt;" style="text;strokeColor=none;fillColor=none;align=left;verticalAlign=top;spacingLeft=4;spacingRight=4;overflow=hidden;rotatable=0;points=[[0,0.5],[1,0.5]];portConstraint=eastwest;whiteSpace=wrap;html=1;" parent="2EdYx-QQGdsCaBUIHvsT-97" vertex="1">
          <mxGeometry y="78" width="290" height="26" as="geometry" />
        </mxCell>
        <mxCell id="2EdYx-QQGdsCaBUIHvsT-138" style="edgeStyle=orthogonalEdgeStyle;rounded=0;orthogonalLoop=1;jettySize=auto;html=1;" parent="2EdYx-QQGdsCaBUIHvsT-97" source="2EdYx-QQGdsCaBUIHvsT-104" edge="1">
          <mxGeometry relative="1" as="geometry">
            <mxPoint x="390" y="250" as="targetPoint" />
          </mxGeometry>
        </mxCell>
        <mxCell id="2EdYx-QQGdsCaBUIHvsT-104" value="+ filed: List&amp;lt;Relationships&amp;gt;" style="text;strokeColor=none;fillColor=none;align=left;verticalAlign=top;spacingLeft=4;spacingRight=4;overflow=hidden;rotatable=0;points=[[0,0.5],[1,0.5]];portConstraint=eastwest;whiteSpace=wrap;html=1;" parent="2EdYx-QQGdsCaBUIHvsT-97" vertex="1">
          <mxGeometry y="104" width="290" height="26" as="geometry" />
        </mxCell>
        <mxCell id="GQeTn8wQc1jE0vWEfusg-1" value="اطلاعات کامل هر تایپ" style="endArrow=classic;html=1;rounded=0;entryX=0;entryY=1;entryDx=0;entryDy=0;" edge="1" parent="1">
          <mxGeometry width="50" height="50" relative="1" as="geometry">
            <mxPoint x="310" y="650" as="sourcePoint" />
            <mxPoint x="970" y="114" as="targetPoint" />
          </mxGeometry>
        </mxCell>
        <mxCell id="GQeTn8wQc1jE0vWEfusg-10" value="Attribute" style="swimlane;fontStyle=1;align=center;verticalAlign=top;childLayout=stackLayout;horizontal=1;startSize=26;horizontalStack=0;resizeParent=1;resizeParentMax=0;resizeLast=0;collapsible=1;marginBottom=0;whiteSpace=wrap;html=1;" vertex="1" parent="1">
          <mxGeometry x="970" y="80" width="160" height="444" as="geometry" />
        </mxCell>
        <mxCell id="GQeTn8wQc1jE0vWEfusg-11" value="&lt;div style=&quot;background-color: rgb(255, 255, 254); line-height: 18px;&quot;&gt;&lt;div style=&quot;line-height: 18px;&quot;&gt;sku&lt;/div&gt;&lt;/div&gt;" style="text;strokeColor=none;fillColor=none;align=left;verticalAlign=top;spacingLeft=4;spacingRight=4;overflow=hidden;rotatable=0;points=[[0,0.5],[1,0.5]];portConstraint=eastwest;whiteSpace=wrap;html=1;" vertex="1" parent="GQeTn8wQc1jE0vWEfusg-10">
          <mxGeometry y="26" width="160" height="26" as="geometry" />
        </mxCell>
        <mxCell id="GQeTn8wQc1jE0vWEfusg-13" value="&lt;div style=&quot;background-color: rgb(255, 255, 254); line-height: 18px;&quot;&gt;&lt;div style=&quot;line-height: 18px;&quot;&gt;weight&lt;/div&gt;&lt;/div&gt;" style="text;strokeColor=none;fillColor=none;align=left;verticalAlign=top;spacingLeft=4;spacingRight=4;overflow=hidden;rotatable=0;points=[[0,0.5],[1,0.5]];portConstraint=eastwest;whiteSpace=wrap;html=1;" vertex="1" parent="GQeTn8wQc1jE0vWEfusg-10">
          <mxGeometry y="52" width="160" height="26" as="geometry" />
        </mxCell>
        <mxCell id="GQeTn8wQc1jE0vWEfusg-14" value="&lt;div style=&quot;background-color: rgb(255, 255, 254); line-height: 18px;&quot;&gt;&lt;div style=&quot;line-height: 18px;&quot;&gt;&lt;div style=&quot;line-height: 18px;&quot;&gt;height&lt;/div&gt;&lt;/div&gt;&lt;/div&gt;" style="text;strokeColor=none;fillColor=none;align=left;verticalAlign=top;spacingLeft=4;spacingRight=4;overflow=hidden;rotatable=0;points=[[0,0.5],[1,0.5]];portConstraint=eastwest;whiteSpace=wrap;html=1;" vertex="1" parent="GQeTn8wQc1jE0vWEfusg-10">
          <mxGeometry y="78" width="160" height="26" as="geometry" />
        </mxCell>
        <mxCell id="GQeTn8wQc1jE0vWEfusg-15" value="&lt;div style=&quot;background-color: rgb(255, 255, 254); line-height: 18px;&quot;&gt;&lt;div style=&quot;line-height: 18px;&quot;&gt;&lt;div style=&quot;line-height: 18px;&quot;&gt;width&lt;/div&gt;&lt;/div&gt;&lt;/div&gt;" style="text;strokeColor=none;fillColor=none;align=left;verticalAlign=top;spacingLeft=4;spacingRight=4;overflow=hidden;rotatable=0;points=[[0,0.5],[1,0.5]];portConstraint=eastwest;whiteSpace=wrap;html=1;" vertex="1" parent="GQeTn8wQc1jE0vWEfusg-10">
          <mxGeometry y="104" width="160" height="28" as="geometry" />
        </mxCell>
        <mxCell id="GQeTn8wQc1jE0vWEfusg-16" value="&lt;div style=&quot;background-color: rgb(255, 255, 254); line-height: 18px;&quot;&gt;&lt;div style=&quot;line-height: 18px;&quot;&gt;&lt;div style=&quot;line-height: 18px;&quot;&gt;depth&lt;/div&gt;&lt;/div&gt;&lt;/div&gt;" style="text;strokeColor=none;fillColor=none;align=left;verticalAlign=top;spacingLeft=4;spacingRight=4;overflow=hidden;rotatable=0;points=[[0,0.5],[1,0.5]];portConstraint=eastwest;whiteSpace=wrap;html=1;" vertex="1" parent="GQeTn8wQc1jE0vWEfusg-10">
          <mxGeometry y="132" width="160" height="26" as="geometry" />
        </mxCell>
        <mxCell id="GQeTn8wQc1jE0vWEfusg-17" value="&lt;div style=&quot;background-color: rgb(255, 255, 254); line-height: 18px;&quot;&gt;&lt;div style=&quot;line-height: 18px;&quot;&gt;&lt;div style=&quot;line-height: 18px;&quot;&gt;is_master&lt;/div&gt;&lt;/div&gt;&lt;/div&gt;" style="text;strokeColor=none;fillColor=none;align=left;verticalAlign=top;spacingLeft=4;spacingRight=4;overflow=hidden;rotatable=0;points=[[0,0.5],[1,0.5]];portConstraint=eastwest;whiteSpace=wrap;html=1;" vertex="1" parent="GQeTn8wQc1jE0vWEfusg-10">
          <mxGeometry y="158" width="160" height="26" as="geometry" />
        </mxCell>
        <mxCell id="GQeTn8wQc1jE0vWEfusg-18" value="&lt;div style=&quot;background-color: rgb(255, 255, 254); line-height: 18px;&quot;&gt;&lt;div style=&quot;line-height: 18px;&quot;&gt;&lt;div style=&quot;line-height: 18px;&quot;&gt;options_text&lt;/div&gt;&lt;/div&gt;&lt;/div&gt;" style="text;strokeColor=none;fillColor=none;align=left;verticalAlign=top;spacingLeft=4;spacingRight=4;overflow=hidden;rotatable=0;points=[[0,0.5],[1,0.5]];portConstraint=eastwest;whiteSpace=wrap;html=1;" vertex="1" parent="GQeTn8wQc1jE0vWEfusg-10">
          <mxGeometry y="184" width="160" height="26" as="geometry" />
        </mxCell>
        <mxCell id="GQeTn8wQc1jE0vWEfusg-19" value="&lt;div style=&quot;background-color: rgb(255, 255, 254); line-height: 18px;&quot;&gt;&lt;div style=&quot;line-height: 18px;&quot;&gt;&lt;div style=&quot;line-height: 18px;&quot;&gt;public_metadata&lt;/div&gt;&lt;/div&gt;&lt;/div&gt;" style="text;strokeColor=none;fillColor=none;align=left;verticalAlign=top;spacingLeft=4;spacingRight=4;overflow=hidden;rotatable=0;points=[[0,0.5],[1,0.5]];portConstraint=eastwest;whiteSpace=wrap;html=1;" vertex="1" parent="GQeTn8wQc1jE0vWEfusg-10">
          <mxGeometry y="210" width="160" height="26" as="geometry" />
        </mxCell>
        <mxCell id="GQeTn8wQc1jE0vWEfusg-20" value="&lt;div style=&quot;background-color: rgb(255, 255, 254); line-height: 18px;&quot;&gt;&lt;div style=&quot;line-height: 18px;&quot;&gt;&lt;div style=&quot;line-height: 18px;&quot;&gt;purchasable&lt;/div&gt;&lt;/div&gt;&lt;/div&gt;" style="text;strokeColor=none;fillColor=none;align=left;verticalAlign=top;spacingLeft=4;spacingRight=4;overflow=hidden;rotatable=0;points=[[0,0.5],[1,0.5]];portConstraint=eastwest;whiteSpace=wrap;html=1;" vertex="1" parent="GQeTn8wQc1jE0vWEfusg-10">
          <mxGeometry y="236" width="160" height="26" as="geometry" />
        </mxCell>
        <mxCell id="GQeTn8wQc1jE0vWEfusg-21" value="&lt;div style=&quot;background-color: rgb(255, 255, 254); line-height: 18px;&quot;&gt;&lt;div style=&quot;line-height: 18px;&quot;&gt;&lt;div style=&quot;line-height: 18px;&quot;&gt;in_stock&lt;/div&gt;&lt;/div&gt;&lt;/div&gt;" style="text;strokeColor=none;fillColor=none;align=left;verticalAlign=top;spacingLeft=4;spacingRight=4;overflow=hidden;rotatable=0;points=[[0,0.5],[1,0.5]];portConstraint=eastwest;whiteSpace=wrap;html=1;" vertex="1" parent="GQeTn8wQc1jE0vWEfusg-10">
          <mxGeometry y="262" width="160" height="26" as="geometry" />
        </mxCell>
        <mxCell id="GQeTn8wQc1jE0vWEfusg-22" value="&lt;div style=&quot;background-color: rgb(255, 255, 254); line-height: 18px;&quot;&gt;&lt;div style=&quot;line-height: 18px;&quot;&gt;&lt;div style=&quot;line-height: 18px;&quot;&gt;backorderable&lt;/div&gt;&lt;/div&gt;&lt;/div&gt;" style="text;strokeColor=none;fillColor=none;align=left;verticalAlign=top;spacingLeft=4;spacingRight=4;overflow=hidden;rotatable=0;points=[[0,0.5],[1,0.5]];portConstraint=eastwest;whiteSpace=wrap;html=1;" vertex="1" parent="GQeTn8wQc1jE0vWEfusg-10">
          <mxGeometry y="288" width="160" height="26" as="geometry" />
        </mxCell>
        <mxCell id="GQeTn8wQc1jE0vWEfusg-23" value="&lt;div style=&quot;background-color: rgb(255, 255, 254); line-height: 18px;&quot;&gt;&lt;div style=&quot;line-height: 18px;&quot;&gt;&lt;div style=&quot;line-height: 18px;&quot;&gt;currency&lt;/div&gt;&lt;/div&gt;&lt;/div&gt;" style="text;strokeColor=none;fillColor=none;align=left;verticalAlign=top;spacingLeft=4;spacingRight=4;overflow=hidden;rotatable=0;points=[[0,0.5],[1,0.5]];portConstraint=eastwest;whiteSpace=wrap;html=1;" vertex="1" parent="GQeTn8wQc1jE0vWEfusg-10">
          <mxGeometry y="314" width="160" height="26" as="geometry" />
        </mxCell>
        <mxCell id="GQeTn8wQc1jE0vWEfusg-24" value="&lt;div style=&quot;background-color: rgb(255, 255, 254); line-height: 18px;&quot;&gt;&lt;div style=&quot;line-height: 18px;&quot;&gt;&lt;div style=&quot;line-height: 18px;&quot;&gt;price&lt;/div&gt;&lt;/div&gt;&lt;/div&gt;" style="text;strokeColor=none;fillColor=none;align=left;verticalAlign=top;spacingLeft=4;spacingRight=4;overflow=hidden;rotatable=0;points=[[0,0.5],[1,0.5]];portConstraint=eastwest;whiteSpace=wrap;html=1;" vertex="1" parent="GQeTn8wQc1jE0vWEfusg-10">
          <mxGeometry y="340" width="160" height="26" as="geometry" />
        </mxCell>
        <mxCell id="GQeTn8wQc1jE0vWEfusg-25" value="&lt;div style=&quot;background-color: rgb(255, 255, 254); line-height: 18px;&quot;&gt;&lt;div style=&quot;line-height: 18px;&quot;&gt;&lt;div style=&quot;line-height: 18px;&quot;&gt;&lt;div style=&quot;line-height: 18px;&quot;&gt;display_price&lt;/div&gt;&lt;/div&gt;&lt;/div&gt;&lt;/div&gt;" style="text;strokeColor=none;fillColor=none;align=left;verticalAlign=top;spacingLeft=4;spacingRight=4;overflow=hidden;rotatable=0;points=[[0,0.5],[1,0.5]];portConstraint=eastwest;whiteSpace=wrap;html=1;" vertex="1" parent="GQeTn8wQc1jE0vWEfusg-10">
          <mxGeometry y="366" width="160" height="26" as="geometry" />
        </mxCell>
        <mxCell id="GQeTn8wQc1jE0vWEfusg-26" value="&lt;div style=&quot;background-color: rgb(255, 255, 254); line-height: 18px;&quot;&gt;&lt;div style=&quot;line-height: 18px;&quot;&gt;&lt;div style=&quot;line-height: 18px;&quot;&gt;compare_at_price&lt;/div&gt;&lt;/div&gt;&lt;/div&gt;" style="text;strokeColor=none;fillColor=none;align=left;verticalAlign=top;spacingLeft=4;spacingRight=4;overflow=hidden;rotatable=0;points=[[0,0.5],[1,0.5]];portConstraint=eastwest;whiteSpace=wrap;html=1;" vertex="1" parent="GQeTn8wQc1jE0vWEfusg-10">
          <mxGeometry y="392" width="160" height="26" as="geometry" />
        </mxCell>
        <mxCell id="GQeTn8wQc1jE0vWEfusg-27" value="&lt;div style=&quot;background-color: rgb(255, 255, 254); line-height: 18px;&quot;&gt;&lt;div style=&quot;line-height: 18px;&quot;&gt;&lt;div style=&quot;line-height: 18px;&quot;&gt;display_compare_at_price&lt;/div&gt;&lt;/div&gt;&lt;/div&gt;" style="text;strokeColor=none;fillColor=none;align=left;verticalAlign=top;spacingLeft=4;spacingRight=4;overflow=hidden;rotatable=0;points=[[0,0.5],[1,0.5]];portConstraint=eastwest;whiteSpace=wrap;html=1;" vertex="1" parent="GQeTn8wQc1jE0vWEfusg-10">
          <mxGeometry y="418" width="160" height="26" as="geometry" />
        </mxCell>
        <mxCell id="GQeTn8wQc1jE0vWEfusg-43" value="Relationship" style="swimlane;fontStyle=1;align=center;verticalAlign=top;childLayout=stackLayout;horizontal=1;startSize=26;horizontalStack=0;resizeParent=1;resizeParentMax=0;resizeLast=0;collapsible=1;marginBottom=0;whiteSpace=wrap;html=1;" vertex="1" parent="1">
          <mxGeometry x="1440" y="90" width="260" height="158" as="geometry" />
        </mxCell>
        <mxCell id="GQeTn8wQc1jE0vWEfusg-45" value="&lt;div style=&quot;background-color: rgb(255, 255, 254); line-height: 18px;&quot;&gt;products&amp;nbsp;&amp;nbsp;&lt;/div&gt;&amp;nbsp;{ List&amp;lt;Data&amp;gt; }" style="text;strokeColor=none;fillColor=none;align=left;verticalAlign=top;spacingLeft=4;spacingRight=4;overflow=hidden;rotatable=0;points=[[0,0.5],[1,0.5]];portConstraint=eastwest;whiteSpace=wrap;html=1;" vertex="1" parent="GQeTn8wQc1jE0vWEfusg-43">
          <mxGeometry y="26" width="260" height="44" as="geometry" />
        </mxCell>
        <mxCell id="GQeTn8wQc1jE0vWEfusg-47" value="&lt;div style=&quot;background-color: rgb(255, 255, 254); line-height: 18px;&quot;&gt;images&amp;nbsp;{ List&amp;lt;Data&amp;gt; }&lt;/div&gt;" style="text;strokeColor=none;fillColor=none;align=left;verticalAlign=top;spacingLeft=4;spacingRight=4;overflow=hidden;rotatable=0;points=[[0,0.5],[1,0.5]];portConstraint=eastwest;whiteSpace=wrap;html=1;" vertex="1" parent="GQeTn8wQc1jE0vWEfusg-43">
          <mxGeometry y="70" width="260" height="28" as="geometry" />
        </mxCell>
        <mxCell id="GQeTn8wQc1jE0vWEfusg-48" value="&lt;div style=&quot;background-color: rgb(255, 255, 254); line-height: 18px;&quot;&gt;&lt;div style=&quot;line-height: 18px;&quot;&gt;option_values{ List&amp;lt;Data&amp;gt; }&lt;/div&gt;&lt;/div&gt;" style="text;strokeColor=none;fillColor=none;align=left;verticalAlign=top;spacingLeft=4;spacingRight=4;overflow=hidden;rotatable=0;points=[[0,0.5],[1,0.5]];portConstraint=eastwest;whiteSpace=wrap;html=1;" vertex="1" parent="GQeTn8wQc1jE0vWEfusg-43">
          <mxGeometry y="98" width="260" height="34" as="geometry" />
        </mxCell>
        <mxCell id="GQeTn8wQc1jE0vWEfusg-50" value="&lt;div style=&quot;background-color: rgb(255, 255, 254); line-height: 18px;&quot;&gt;&lt;div style=&quot;line-height: 18px;&quot;&gt;vendor{ List&amp;lt;Data&amp;gt; }&lt;/div&gt;&lt;/div&gt;" style="text;strokeColor=none;fillColor=none;align=left;verticalAlign=top;spacingLeft=4;spacingRight=4;overflow=hidden;rotatable=0;points=[[0,0.5],[1,0.5]];portConstraint=eastwest;whiteSpace=wrap;html=1;" vertex="1" parent="GQeTn8wQc1jE0vWEfusg-43">
          <mxGeometry y="132" width="260" height="26" as="geometry" />
        </mxCell>
        <mxCell id="GQeTn8wQc1jE0vWEfusg-74" value="option_type" style="swimlane;fontStyle=1;align=center;verticalAlign=top;childLayout=stackLayout;horizontal=1;startSize=26;horizontalStack=0;resizeParent=1;resizeParentMax=0;resizeLast=0;collapsible=1;marginBottom=0;whiteSpace=wrap;html=1;" vertex="1" parent="1">
          <mxGeometry x="2330" width="290" height="130" as="geometry" />
        </mxCell>
        <mxCell id="GQeTn8wQc1jE0vWEfusg-75" value="+ field: Id : 1" style="text;strokeColor=none;fillColor=none;align=left;verticalAlign=top;spacingLeft=4;spacingRight=4;overflow=hidden;rotatable=0;points=[[0,0.5],[1,0.5]];portConstraint=eastwest;whiteSpace=wrap;html=1;" vertex="1" parent="GQeTn8wQc1jE0vWEfusg-74">
          <mxGeometry y="26" width="290" height="26" as="geometry" />
        </mxCell>
        <mxCell id="GQeTn8wQc1jE0vWEfusg-76" value="+ filed: Type : option_type" style="text;strokeColor=none;fillColor=none;align=left;verticalAlign=top;spacingLeft=4;spacingRight=4;overflow=hidden;rotatable=0;points=[[0,0.5],[1,0.5]];portConstraint=eastwest;whiteSpace=wrap;html=1;" vertex="1" parent="GQeTn8wQc1jE0vWEfusg-74">
          <mxGeometry y="52" width="290" height="26" as="geometry" />
        </mxCell>
        <mxCell id="GQeTn8wQc1jE0vWEfusg-78" style="edgeStyle=orthogonalEdgeStyle;rounded=0;orthogonalLoop=1;jettySize=auto;html=1;" edge="1" parent="GQeTn8wQc1jE0vWEfusg-74" source="GQeTn8wQc1jE0vWEfusg-79">
          <mxGeometry relative="1" as="geometry">
            <mxPoint x="-130" y="240" as="targetPoint" />
          </mxGeometry>
        </mxCell>
        <mxCell id="GQeTn8wQc1jE0vWEfusg-79" value="+ filed: List&amp;lt;Attributes&amp;gt;" style="text;strokeColor=none;fillColor=none;align=left;verticalAlign=top;spacingLeft=4;spacingRight=4;overflow=hidden;rotatable=0;points=[[0,0.5],[1,0.5]];portConstraint=eastwest;whiteSpace=wrap;html=1;" vertex="1" parent="GQeTn8wQc1jE0vWEfusg-74">
          <mxGeometry y="78" width="290" height="26" as="geometry" />
        </mxCell>
        <mxCell id="GQeTn8wQc1jE0vWEfusg-80" style="edgeStyle=orthogonalEdgeStyle;rounded=0;orthogonalLoop=1;jettySize=auto;html=1;" edge="1" parent="GQeTn8wQc1jE0vWEfusg-74" source="GQeTn8wQc1jE0vWEfusg-81">
          <mxGeometry relative="1" as="geometry">
            <mxPoint x="390" y="250" as="targetPoint" />
          </mxGeometry>
        </mxCell>
        <mxCell id="GQeTn8wQc1jE0vWEfusg-81" value="+ filed: List&amp;lt;Relationships&amp;gt;" style="text;strokeColor=none;fillColor=none;align=left;verticalAlign=top;spacingLeft=4;spacingRight=4;overflow=hidden;rotatable=0;points=[[0,0.5],[1,0.5]];portConstraint=eastwest;whiteSpace=wrap;html=1;" vertex="1" parent="GQeTn8wQc1jE0vWEfusg-74">
          <mxGeometry y="104" width="290" height="26" as="geometry" />
        </mxCell>
        <mxCell id="GQeTn8wQc1jE0vWEfusg-82" value="Attribute" style="swimlane;fontStyle=1;align=center;verticalAlign=top;childLayout=stackLayout;horizontal=1;startSize=26;horizontalStack=0;resizeParent=1;resizeParentMax=0;resizeLast=0;collapsible=1;marginBottom=0;whiteSpace=wrap;html=1;" vertex="1" parent="1">
          <mxGeometry x="2125" y="243" width="160" height="132" as="geometry" />
        </mxCell>
        <mxCell id="GQeTn8wQc1jE0vWEfusg-83" value="&lt;div style=&quot;background-color: rgb(255, 255, 254); line-height: 18px;&quot;&gt;&lt;div style=&quot;line-height: 18px;&quot;&gt;&lt;div style=&quot;line-height: 18px;&quot;&gt;name&lt;/div&gt;&lt;/div&gt;&lt;/div&gt;" style="text;strokeColor=none;fillColor=none;align=left;verticalAlign=top;spacingLeft=4;spacingRight=4;overflow=hidden;rotatable=0;points=[[0,0.5],[1,0.5]];portConstraint=eastwest;whiteSpace=wrap;html=1;" vertex="1" parent="GQeTn8wQc1jE0vWEfusg-82">
          <mxGeometry y="26" width="160" height="26" as="geometry" />
        </mxCell>
        <mxCell id="GQeTn8wQc1jE0vWEfusg-85" value="&lt;div style=&quot;background-color: rgb(255, 255, 254); line-height: 18px;&quot;&gt;&lt;div style=&quot;line-height: 18px;&quot;&gt;&lt;div style=&quot;line-height: 18px;&quot;&gt;presentation&lt;/div&gt;&lt;/div&gt;&lt;/div&gt;" style="text;strokeColor=none;fillColor=none;align=left;verticalAlign=top;spacingLeft=4;spacingRight=4;overflow=hidden;rotatable=0;points=[[0,0.5],[1,0.5]];portConstraint=eastwest;whiteSpace=wrap;html=1;" vertex="1" parent="GQeTn8wQc1jE0vWEfusg-82">
          <mxGeometry y="52" width="160" height="26" as="geometry" />
        </mxCell>
        <mxCell id="GQeTn8wQc1jE0vWEfusg-86" value="&lt;div style=&quot;background-color: rgb(255, 255, 254); line-height: 18px;&quot;&gt;&lt;div style=&quot;line-height: 18px;&quot;&gt;&lt;div style=&quot;line-height: 18px;&quot;&gt;&lt;div style=&quot;line-height: 18px;&quot;&gt;position&lt;/div&gt;&lt;/div&gt;&lt;/div&gt;&lt;/div&gt;" style="text;strokeColor=none;fillColor=none;align=left;verticalAlign=top;spacingLeft=4;spacingRight=4;overflow=hidden;rotatable=0;points=[[0,0.5],[1,0.5]];portConstraint=eastwest;whiteSpace=wrap;html=1;" vertex="1" parent="GQeTn8wQc1jE0vWEfusg-82">
          <mxGeometry y="78" width="160" height="26" as="geometry" />
        </mxCell>
        <mxCell id="GQeTn8wQc1jE0vWEfusg-87" value="&lt;div style=&quot;background-color: rgb(255, 255, 254); line-height: 18px;&quot;&gt;&lt;div style=&quot;line-height: 18px;&quot;&gt;&lt;div style=&quot;line-height: 18px;&quot;&gt;&lt;div style=&quot;line-height: 18px;&quot;&gt;public_metadata&lt;/div&gt;&lt;/div&gt;&lt;/div&gt;&lt;/div&gt;" style="text;strokeColor=none;fillColor=none;align=left;verticalAlign=top;spacingLeft=4;spacingRight=4;overflow=hidden;rotatable=0;points=[[0,0.5],[1,0.5]];portConstraint=eastwest;whiteSpace=wrap;html=1;" vertex="1" parent="GQeTn8wQc1jE0vWEfusg-82">
          <mxGeometry y="104" width="160" height="28" as="geometry" />
        </mxCell>
        <mxCell id="GQeTn8wQc1jE0vWEfusg-108" value="Relationship" style="swimlane;fontStyle=1;align=center;verticalAlign=top;childLayout=stackLayout;horizontal=1;startSize=26;horizontalStack=0;resizeParent=1;resizeParentMax=0;resizeLast=0;collapsible=1;marginBottom=0;whiteSpace=wrap;html=1;" vertex="1" parent="1">
          <mxGeometry x="2560" y="248" width="300" height="70" as="geometry" />
        </mxCell>
        <mxCell id="GQeTn8wQc1jE0vWEfusg-109" style="edgeStyle=orthogonalEdgeStyle;rounded=0;orthogonalLoop=1;jettySize=auto;html=1;" edge="1" parent="GQeTn8wQc1jE0vWEfusg-108" source="GQeTn8wQc1jE0vWEfusg-110">
          <mxGeometry relative="1" as="geometry">
            <mxPoint x="450" y="48" as="targetPoint" />
          </mxGeometry>
        </mxCell>
        <mxCell id="GQeTn8wQc1jE0vWEfusg-110" value="&lt;div style=&quot;background-color: rgb(255, 255, 254); line-height: 18px;&quot;&gt;data&amp;nbsp;&amp;nbsp;&lt;/div&gt;&amp;nbsp;{ List&amp;lt;optrion_value : {id : 1 , type : option_value} &amp;gt; }" style="text;strokeColor=none;fillColor=none;align=left;verticalAlign=top;spacingLeft=4;spacingRight=4;overflow=hidden;rotatable=0;points=[[0,0.5],[1,0.5]];portConstraint=eastwest;whiteSpace=wrap;html=1;" vertex="1" parent="GQeTn8wQc1jE0vWEfusg-108">
          <mxGeometry y="26" width="300" height="44" as="geometry" />
        </mxCell>
        <mxCell id="GQeTn8wQc1jE0vWEfusg-118" value="product_property" style="swimlane;fontStyle=1;align=center;verticalAlign=top;childLayout=stackLayout;horizontal=1;startSize=26;horizontalStack=0;resizeParent=1;resizeParentMax=0;resizeLast=0;collapsible=1;marginBottom=0;whiteSpace=wrap;html=1;" vertex="1" parent="1">
          <mxGeometry x="2155" y="532" width="290" height="104" as="geometry" />
        </mxCell>
        <mxCell id="GQeTn8wQc1jE0vWEfusg-119" value="+ field: Id : 1092" style="text;strokeColor=none;fillColor=none;align=left;verticalAlign=top;spacingLeft=4;spacingRight=4;overflow=hidden;rotatable=0;points=[[0,0.5],[1,0.5]];portConstraint=eastwest;whiteSpace=wrap;html=1;" vertex="1" parent="GQeTn8wQc1jE0vWEfusg-118">
          <mxGeometry y="26" width="290" height="26" as="geometry" />
        </mxCell>
        <mxCell id="GQeTn8wQc1jE0vWEfusg-120" value="+ filed: Type :&amp;nbsp;product_property" style="text;strokeColor=none;fillColor=none;align=left;verticalAlign=top;spacingLeft=4;spacingRight=4;overflow=hidden;rotatable=0;points=[[0,0.5],[1,0.5]];portConstraint=eastwest;whiteSpace=wrap;html=1;" vertex="1" parent="GQeTn8wQc1jE0vWEfusg-118">
          <mxGeometry y="52" width="290" height="26" as="geometry" />
        </mxCell>
        <mxCell id="GQeTn8wQc1jE0vWEfusg-122" style="edgeStyle=orthogonalEdgeStyle;rounded=0;orthogonalLoop=1;jettySize=auto;html=1;" edge="1" parent="GQeTn8wQc1jE0vWEfusg-118" source="GQeTn8wQc1jE0vWEfusg-123">
          <mxGeometry relative="1" as="geometry">
            <mxPoint x="-130" y="240" as="targetPoint" />
          </mxGeometry>
        </mxCell>
        <mxCell id="GQeTn8wQc1jE0vWEfusg-123" value="+ filed: List&amp;lt;Attributes&amp;gt;" style="text;strokeColor=none;fillColor=none;align=left;verticalAlign=top;spacingLeft=4;spacingRight=4;overflow=hidden;rotatable=0;points=[[0,0.5],[1,0.5]];portConstraint=eastwest;whiteSpace=wrap;html=1;" vertex="1" parent="GQeTn8wQc1jE0vWEfusg-118">
          <mxGeometry y="78" width="290" height="26" as="geometry" />
        </mxCell>
        <mxCell id="GQeTn8wQc1jE0vWEfusg-126" value="Attribute" style="swimlane;fontStyle=1;align=center;verticalAlign=top;childLayout=stackLayout;horizontal=1;startSize=26;horizontalStack=0;resizeParent=1;resizeParentMax=0;resizeLast=0;collapsible=1;marginBottom=0;whiteSpace=wrap;html=1;" vertex="1" parent="1">
          <mxGeometry x="1950" y="775" width="160" height="140" as="geometry" />
        </mxCell>
        <mxCell id="GQeTn8wQc1jE0vWEfusg-127" value="&lt;div style=&quot;background-color: rgb(255, 255, 254); line-height: 18px;&quot;&gt;&lt;div style=&quot;line-height: 18px;&quot;&gt;&lt;div style=&quot;line-height: 18px;&quot;&gt;&lt;div style=&quot;line-height: 18px;&quot;&gt;value&lt;/div&gt;&lt;/div&gt;&lt;/div&gt;&lt;/div&gt;" style="text;strokeColor=none;fillColor=none;align=left;verticalAlign=top;spacingLeft=4;spacingRight=4;overflow=hidden;rotatable=0;points=[[0,0.5],[1,0.5]];portConstraint=eastwest;whiteSpace=wrap;html=1;" vertex="1" parent="GQeTn8wQc1jE0vWEfusg-126">
          <mxGeometry y="26" width="160" height="26" as="geometry" />
        </mxCell>
        <mxCell id="GQeTn8wQc1jE0vWEfusg-128" value="" style="line;strokeWidth=1;fillColor=none;align=left;verticalAlign=middle;spacingTop=-1;spacingLeft=3;spacingRight=3;rotatable=0;labelPosition=right;points=[];portConstraint=eastwest;strokeColor=inherit;" vertex="1" parent="GQeTn8wQc1jE0vWEfusg-126">
          <mxGeometry y="52" width="160" height="8" as="geometry" />
        </mxCell>
        <mxCell id="GQeTn8wQc1jE0vWEfusg-129" value="&lt;div style=&quot;background-color: rgb(255, 255, 254); line-height: 18px;&quot;&gt;&lt;div style=&quot;line-height: 18px;&quot;&gt;&lt;div style=&quot;line-height: 18px;&quot;&gt;&lt;div style=&quot;line-height: 18px;&quot;&gt;filter_param&lt;/div&gt;&lt;/div&gt;&lt;/div&gt;&lt;/div&gt;" style="text;strokeColor=none;fillColor=none;align=left;verticalAlign=top;spacingLeft=4;spacingRight=4;overflow=hidden;rotatable=0;points=[[0,0.5],[1,0.5]];portConstraint=eastwest;whiteSpace=wrap;html=1;" vertex="1" parent="GQeTn8wQc1jE0vWEfusg-126">
          <mxGeometry y="60" width="160" height="26" as="geometry" />
        </mxCell>
        <mxCell id="GQeTn8wQc1jE0vWEfusg-130" value="&lt;div style=&quot;background-color: rgb(255, 255, 254); line-height: 18px;&quot;&gt;&lt;div style=&quot;line-height: 18px;&quot;&gt;&lt;div style=&quot;line-height: 18px;&quot;&gt;&lt;div style=&quot;line-height: 18px;&quot;&gt;&lt;div style=&quot;line-height: 18px;&quot;&gt;name&lt;/div&gt;&lt;/div&gt;&lt;/div&gt;&lt;/div&gt;&lt;/div&gt;" style="text;strokeColor=none;fillColor=none;align=left;verticalAlign=top;spacingLeft=4;spacingRight=4;overflow=hidden;rotatable=0;points=[[0,0.5],[1,0.5]];portConstraint=eastwest;whiteSpace=wrap;html=1;" vertex="1" parent="GQeTn8wQc1jE0vWEfusg-126">
          <mxGeometry y="86" width="160" height="26" as="geometry" />
        </mxCell>
        <mxCell id="GQeTn8wQc1jE0vWEfusg-131" value="&lt;div style=&quot;background-color: rgb(255, 255, 254); line-height: 18px;&quot;&gt;&lt;div style=&quot;line-height: 18px;&quot;&gt;&lt;div style=&quot;line-height: 18px;&quot;&gt;&lt;div style=&quot;line-height: 18px;&quot;&gt;&lt;div style=&quot;line-height: 18px;&quot;&gt;description&lt;/div&gt;&lt;/div&gt;&lt;/div&gt;&lt;/div&gt;&lt;/div&gt;" style="text;strokeColor=none;fillColor=none;align=left;verticalAlign=top;spacingLeft=4;spacingRight=4;overflow=hidden;rotatable=0;points=[[0,0.5],[1,0.5]];portConstraint=eastwest;whiteSpace=wrap;html=1;" vertex="1" parent="GQeTn8wQc1jE0vWEfusg-126">
          <mxGeometry y="112" width="160" height="28" as="geometry" />
        </mxCell>
        <mxCell id="GQeTn8wQc1jE0vWEfusg-132" value="taxon" style="swimlane;fontStyle=1;align=center;verticalAlign=top;childLayout=stackLayout;horizontal=1;startSize=26;horizontalStack=0;resizeParent=1;resizeParentMax=0;resizeLast=0;collapsible=1;marginBottom=0;whiteSpace=wrap;html=1;" vertex="1" parent="1">
          <mxGeometry x="1020" y="690" width="290" height="138" as="geometry" />
        </mxCell>
        <mxCell id="GQeTn8wQc1jE0vWEfusg-133" value="+ field: Id : 10789" style="text;strokeColor=none;fillColor=none;align=left;verticalAlign=top;spacingLeft=4;spacingRight=4;overflow=hidden;rotatable=0;points=[[0,0.5],[1,0.5]];portConstraint=eastwest;whiteSpace=wrap;html=1;" vertex="1" parent="GQeTn8wQc1jE0vWEfusg-132">
          <mxGeometry y="26" width="290" height="26" as="geometry" />
        </mxCell>
        <mxCell id="GQeTn8wQc1jE0vWEfusg-134" value="+ filed: Type : taxon" style="text;strokeColor=none;fillColor=none;align=left;verticalAlign=top;spacingLeft=4;spacingRight=4;overflow=hidden;rotatable=0;points=[[0,0.5],[1,0.5]];portConstraint=eastwest;whiteSpace=wrap;html=1;" vertex="1" parent="GQeTn8wQc1jE0vWEfusg-132">
          <mxGeometry y="52" width="290" height="26" as="geometry" />
        </mxCell>
        <mxCell id="GQeTn8wQc1jE0vWEfusg-135" value="" style="line;strokeWidth=1;fillColor=none;align=left;verticalAlign=middle;spacingTop=-1;spacingLeft=3;spacingRight=3;rotatable=0;labelPosition=right;points=[];portConstraint=eastwest;strokeColor=inherit;" vertex="1" parent="GQeTn8wQc1jE0vWEfusg-132">
          <mxGeometry y="78" width="290" height="8" as="geometry" />
        </mxCell>
        <mxCell id="GQeTn8wQc1jE0vWEfusg-136" style="edgeStyle=orthogonalEdgeStyle;rounded=0;orthogonalLoop=1;jettySize=auto;html=1;" edge="1" parent="GQeTn8wQc1jE0vWEfusg-132" source="GQeTn8wQc1jE0vWEfusg-137">
          <mxGeometry relative="1" as="geometry">
            <mxPoint x="-130" y="240" as="targetPoint" />
          </mxGeometry>
        </mxCell>
        <mxCell id="GQeTn8wQc1jE0vWEfusg-137" value="+ filed: List&amp;lt;Attributes&amp;gt;" style="text;strokeColor=none;fillColor=none;align=left;verticalAlign=top;spacingLeft=4;spacingRight=4;overflow=hidden;rotatable=0;points=[[0,0.5],[1,0.5]];portConstraint=eastwest;whiteSpace=wrap;html=1;" vertex="1" parent="GQeTn8wQc1jE0vWEfusg-132">
          <mxGeometry y="86" width="290" height="26" as="geometry" />
        </mxCell>
        <mxCell id="GQeTn8wQc1jE0vWEfusg-138" style="edgeStyle=orthogonalEdgeStyle;rounded=0;orthogonalLoop=1;jettySize=auto;html=1;" edge="1" parent="GQeTn8wQc1jE0vWEfusg-132" source="GQeTn8wQc1jE0vWEfusg-139">
          <mxGeometry relative="1" as="geometry">
            <mxPoint x="390" y="250" as="targetPoint" />
          </mxGeometry>
        </mxCell>
        <mxCell id="GQeTn8wQc1jE0vWEfusg-139" value="+ filed: List&amp;lt;Relationships&amp;gt;" style="text;strokeColor=none;fillColor=none;align=left;verticalAlign=top;spacingLeft=4;spacingRight=4;overflow=hidden;rotatable=0;points=[[0,0.5],[1,0.5]];portConstraint=eastwest;whiteSpace=wrap;html=1;" vertex="1" parent="GQeTn8wQc1jE0vWEfusg-132">
          <mxGeometry y="112" width="290" height="26" as="geometry" />
        </mxCell>
        <mxCell id="GQeTn8wQc1jE0vWEfusg-140" value="Attribute" style="swimlane;fontStyle=1;align=center;verticalAlign=top;childLayout=stackLayout;horizontal=1;startSize=26;horizontalStack=0;resizeParent=1;resizeParentMax=0;resizeLast=0;collapsible=1;marginBottom=0;whiteSpace=wrap;html=1;" vertex="1" parent="1">
          <mxGeometry x="810" y="930" width="160" height="480" as="geometry" />
        </mxCell>
        <mxCell id="GQeTn8wQc1jE0vWEfusg-141" value="&lt;div style=&quot;background-color: rgb(255, 255, 254); line-height: 18px;&quot;&gt;&lt;div style=&quot;line-height: 18px;&quot;&gt;&lt;div style=&quot;line-height: 18px;&quot;&gt;name&lt;/div&gt;&lt;/div&gt;&lt;/div&gt;" style="text;strokeColor=none;fillColor=none;align=left;verticalAlign=top;spacingLeft=4;spacingRight=4;overflow=hidden;rotatable=0;points=[[0,0.5],[1,0.5]];portConstraint=eastwest;whiteSpace=wrap;html=1;" vertex="1" parent="GQeTn8wQc1jE0vWEfusg-140">
          <mxGeometry y="26" width="160" height="26" as="geometry" />
        </mxCell>
        <mxCell id="GQeTn8wQc1jE0vWEfusg-142" value="" style="line;strokeWidth=1;fillColor=none;align=left;verticalAlign=middle;spacingTop=-1;spacingLeft=3;spacingRight=3;rotatable=0;labelPosition=right;points=[];portConstraint=eastwest;strokeColor=inherit;" vertex="1" parent="GQeTn8wQc1jE0vWEfusg-140">
          <mxGeometry y="52" width="160" height="8" as="geometry" />
        </mxCell>
        <mxCell id="GQeTn8wQc1jE0vWEfusg-143" value="&lt;div style=&quot;background-color: rgb(255, 255, 254); line-height: 18px;&quot;&gt;&lt;div style=&quot;line-height: 18px;&quot;&gt;&lt;div style=&quot;line-height: 18px;&quot;&gt;pretty_name&lt;/div&gt;&lt;/div&gt;&lt;/div&gt;" style="text;strokeColor=none;fillColor=none;align=left;verticalAlign=top;spacingLeft=4;spacingRight=4;overflow=hidden;rotatable=0;points=[[0,0.5],[1,0.5]];portConstraint=eastwest;whiteSpace=wrap;html=1;" vertex="1" parent="GQeTn8wQc1jE0vWEfusg-140">
          <mxGeometry y="60" width="160" height="26" as="geometry" />
        </mxCell>
        <mxCell id="GQeTn8wQc1jE0vWEfusg-144" value="&lt;div style=&quot;background-color: rgb(255, 255, 254); line-height: 18px;&quot;&gt;&lt;div style=&quot;line-height: 18px;&quot;&gt;&lt;div style=&quot;line-height: 18px;&quot;&gt;&lt;div style=&quot;line-height: 18px;&quot;&gt;permalink&lt;/div&gt;&lt;/div&gt;&lt;/div&gt;&lt;/div&gt;" style="text;strokeColor=none;fillColor=none;align=left;verticalAlign=top;spacingLeft=4;spacingRight=4;overflow=hidden;rotatable=0;points=[[0,0.5],[1,0.5]];portConstraint=eastwest;whiteSpace=wrap;html=1;" vertex="1" parent="GQeTn8wQc1jE0vWEfusg-140">
          <mxGeometry y="86" width="160" height="26" as="geometry" />
        </mxCell>
        <mxCell id="GQeTn8wQc1jE0vWEfusg-145" value="&lt;div style=&quot;background-color: rgb(255, 255, 254); line-height: 18px;&quot;&gt;&lt;div style=&quot;line-height: 18px;&quot;&gt;&lt;div style=&quot;line-height: 18px;&quot;&gt;&lt;div style=&quot;line-height: 18px;&quot;&gt;seo_title&lt;/div&gt;&lt;/div&gt;&lt;/div&gt;&lt;/div&gt;" style="text;strokeColor=none;fillColor=none;align=left;verticalAlign=top;spacingLeft=4;spacingRight=4;overflow=hidden;rotatable=0;points=[[0,0.5],[1,0.5]];portConstraint=eastwest;whiteSpace=wrap;html=1;" vertex="1" parent="GQeTn8wQc1jE0vWEfusg-140">
          <mxGeometry y="112" width="160" height="28" as="geometry" />
        </mxCell>
        <mxCell id="GQeTn8wQc1jE0vWEfusg-146" value="&lt;div style=&quot;background-color: rgb(255, 255, 254); line-height: 18px;&quot;&gt;&lt;div style=&quot;line-height: 18px;&quot;&gt;&lt;div style=&quot;line-height: 18px;&quot;&gt;&lt;div style=&quot;line-height: 18px;&quot;&gt;description&lt;/div&gt;&lt;/div&gt;&lt;/div&gt;&lt;/div&gt;" style="text;strokeColor=none;fillColor=none;align=left;verticalAlign=top;spacingLeft=4;spacingRight=4;overflow=hidden;rotatable=0;points=[[0,0.5],[1,0.5]];portConstraint=eastwest;whiteSpace=wrap;html=1;" vertex="1" parent="GQeTn8wQc1jE0vWEfusg-140">
          <mxGeometry y="140" width="160" height="26" as="geometry" />
        </mxCell>
        <mxCell id="GQeTn8wQc1jE0vWEfusg-147" value="&lt;div style=&quot;background-color: rgb(255, 255, 254); line-height: 18px;&quot;&gt;&lt;div style=&quot;line-height: 18px;&quot;&gt;&lt;div style=&quot;line-height: 18px;&quot;&gt;&lt;div style=&quot;line-height: 18px;&quot;&gt;meta_title&lt;/div&gt;&lt;/div&gt;&lt;/div&gt;&lt;/div&gt;" style="text;strokeColor=none;fillColor=none;align=left;verticalAlign=top;spacingLeft=4;spacingRight=4;overflow=hidden;rotatable=0;points=[[0,0.5],[1,0.5]];portConstraint=eastwest;whiteSpace=wrap;html=1;" vertex="1" parent="GQeTn8wQc1jE0vWEfusg-140">
          <mxGeometry y="166" width="160" height="26" as="geometry" />
        </mxCell>
        <mxCell id="GQeTn8wQc1jE0vWEfusg-148" value="&lt;div style=&quot;background-color: rgb(255, 255, 254); line-height: 18px;&quot;&gt;&lt;div style=&quot;line-height: 18px;&quot;&gt;&lt;div style=&quot;line-height: 18px;&quot;&gt;&lt;div style=&quot;line-height: 18px;&quot;&gt;&lt;div style=&quot;line-height: 18px;&quot;&gt;meta_description&lt;/div&gt;&lt;/div&gt;&lt;/div&gt;&lt;/div&gt;&lt;/div&gt;" style="text;strokeColor=none;fillColor=none;align=left;verticalAlign=top;spacingLeft=4;spacingRight=4;overflow=hidden;rotatable=0;points=[[0,0.5],[1,0.5]];portConstraint=eastwest;whiteSpace=wrap;html=1;" vertex="1" parent="GQeTn8wQc1jE0vWEfusg-140">
          <mxGeometry y="192" width="160" height="28" as="geometry" />
        </mxCell>
        <mxCell id="GQeTn8wQc1jE0vWEfusg-149" value="&lt;div style=&quot;background-color: rgb(255, 255, 254); line-height: 18px;&quot;&gt;&lt;div style=&quot;line-height: 18px;&quot;&gt;&lt;div style=&quot;line-height: 18px;&quot;&gt;&lt;div style=&quot;line-height: 18px;&quot;&gt;meta_keywords&lt;/div&gt;&lt;/div&gt;&lt;/div&gt;&lt;/div&gt;" style="text;strokeColor=none;fillColor=none;align=left;verticalAlign=top;spacingLeft=4;spacingRight=4;overflow=hidden;rotatable=0;points=[[0,0.5],[1,0.5]];portConstraint=eastwest;whiteSpace=wrap;html=1;" vertex="1" parent="GQeTn8wQc1jE0vWEfusg-140">
          <mxGeometry y="220" width="160" height="26" as="geometry" />
        </mxCell>
        <mxCell id="GQeTn8wQc1jE0vWEfusg-150" value="&lt;div style=&quot;background-color: rgb(255, 255, 254); line-height: 18px;&quot;&gt;&lt;div style=&quot;line-height: 18px;&quot;&gt;&lt;div style=&quot;line-height: 18px;&quot;&gt;&lt;div style=&quot;line-height: 18px;&quot;&gt;left&lt;/div&gt;&lt;/div&gt;&lt;/div&gt;&lt;/div&gt;" style="text;strokeColor=none;fillColor=none;align=left;verticalAlign=top;spacingLeft=4;spacingRight=4;overflow=hidden;rotatable=0;points=[[0,0.5],[1,0.5]];portConstraint=eastwest;whiteSpace=wrap;html=1;" vertex="1" parent="GQeTn8wQc1jE0vWEfusg-140">
          <mxGeometry y="246" width="160" height="26" as="geometry" />
        </mxCell>
        <mxCell id="GQeTn8wQc1jE0vWEfusg-151" value="&lt;div style=&quot;background-color: rgb(255, 255, 254); line-height: 18px;&quot;&gt;&lt;div style=&quot;line-height: 18px;&quot;&gt;&lt;div style=&quot;line-height: 18px;&quot;&gt;&lt;div style=&quot;line-height: 18px;&quot;&gt;right&lt;/div&gt;&lt;/div&gt;&lt;/div&gt;&lt;/div&gt;" style="text;strokeColor=none;fillColor=none;align=left;verticalAlign=top;spacingLeft=4;spacingRight=4;overflow=hidden;rotatable=0;points=[[0,0.5],[1,0.5]];portConstraint=eastwest;whiteSpace=wrap;html=1;" vertex="1" parent="GQeTn8wQc1jE0vWEfusg-140">
          <mxGeometry y="272" width="160" height="26" as="geometry" />
        </mxCell>
        <mxCell id="GQeTn8wQc1jE0vWEfusg-152" value="&lt;div style=&quot;background-color: rgb(255, 255, 254); line-height: 18px;&quot;&gt;&lt;div style=&quot;line-height: 18px;&quot;&gt;&lt;div style=&quot;line-height: 18px;&quot;&gt;&lt;div style=&quot;line-height: 18px;&quot;&gt;position&lt;/div&gt;&lt;/div&gt;&lt;/div&gt;&lt;/div&gt;" style="text;strokeColor=none;fillColor=none;align=left;verticalAlign=top;spacingLeft=4;spacingRight=4;overflow=hidden;rotatable=0;points=[[0,0.5],[1,0.5]];portConstraint=eastwest;whiteSpace=wrap;html=1;" vertex="1" parent="GQeTn8wQc1jE0vWEfusg-140">
          <mxGeometry y="298" width="160" height="26" as="geometry" />
        </mxCell>
        <mxCell id="GQeTn8wQc1jE0vWEfusg-153" value="&lt;div style=&quot;background-color: rgb(255, 255, 254); line-height: 18px;&quot;&gt;&lt;div style=&quot;line-height: 18px;&quot;&gt;&lt;div style=&quot;line-height: 18px;&quot;&gt;&lt;div style=&quot;line-height: 18px;&quot;&gt;depth&lt;/div&gt;&lt;/div&gt;&lt;/div&gt;&lt;/div&gt;" style="text;strokeColor=none;fillColor=none;align=left;verticalAlign=top;spacingLeft=4;spacingRight=4;overflow=hidden;rotatable=0;points=[[0,0.5],[1,0.5]];portConstraint=eastwest;whiteSpace=wrap;html=1;" vertex="1" parent="GQeTn8wQc1jE0vWEfusg-140">
          <mxGeometry y="324" width="160" height="26" as="geometry" />
        </mxCell>
        <mxCell id="GQeTn8wQc1jE0vWEfusg-154" value="&lt;div style=&quot;background-color: rgb(255, 255, 254); line-height: 18px;&quot;&gt;&lt;div style=&quot;line-height: 18px;&quot;&gt;&lt;div style=&quot;line-height: 18px;&quot;&gt;&lt;div style=&quot;line-height: 18px;&quot;&gt;updated_at&lt;/div&gt;&lt;/div&gt;&lt;/div&gt;&lt;/div&gt;" style="text;strokeColor=none;fillColor=none;align=left;verticalAlign=top;spacingLeft=4;spacingRight=4;overflow=hidden;rotatable=0;points=[[0,0.5],[1,0.5]];portConstraint=eastwest;whiteSpace=wrap;html=1;" vertex="1" parent="GQeTn8wQc1jE0vWEfusg-140">
          <mxGeometry y="350" width="160" height="26" as="geometry" />
        </mxCell>
        <mxCell id="GQeTn8wQc1jE0vWEfusg-155" value="&lt;div style=&quot;background-color: rgb(255, 255, 254); line-height: 18px;&quot;&gt;&lt;div style=&quot;line-height: 18px;&quot;&gt;&lt;div style=&quot;line-height: 18px;&quot;&gt;&lt;div style=&quot;line-height: 18px;&quot;&gt;&lt;div style=&quot;line-height: 18px;&quot;&gt;public_metadata&lt;/div&gt;&lt;/div&gt;&lt;/div&gt;&lt;/div&gt;&lt;/div&gt;" style="text;strokeColor=none;fillColor=none;align=left;verticalAlign=top;spacingLeft=4;spacingRight=4;overflow=hidden;rotatable=0;points=[[0,0.5],[1,0.5]];portConstraint=eastwest;whiteSpace=wrap;html=1;" vertex="1" parent="GQeTn8wQc1jE0vWEfusg-140">
          <mxGeometry y="376" width="160" height="26" as="geometry" />
        </mxCell>
        <mxCell id="GQeTn8wQc1jE0vWEfusg-156" value="&lt;div style=&quot;background-color: rgb(255, 255, 254); line-height: 18px;&quot;&gt;&lt;div style=&quot;line-height: 18px;&quot;&gt;&lt;div style=&quot;line-height: 18px;&quot;&gt;&lt;div style=&quot;line-height: 18px;&quot;&gt;is_root&lt;/div&gt;&lt;/div&gt;&lt;/div&gt;&lt;/div&gt;" style="text;strokeColor=none;fillColor=none;align=left;verticalAlign=top;spacingLeft=4;spacingRight=4;overflow=hidden;rotatable=0;points=[[0,0.5],[1,0.5]];portConstraint=eastwest;whiteSpace=wrap;html=1;" vertex="1" parent="GQeTn8wQc1jE0vWEfusg-140">
          <mxGeometry y="402" width="160" height="26" as="geometry" />
        </mxCell>
        <mxCell id="GQeTn8wQc1jE0vWEfusg-157" value="&lt;div style=&quot;background-color: rgb(255, 255, 254); line-height: 18px;&quot;&gt;&lt;div style=&quot;line-height: 18px;&quot;&gt;&lt;div style=&quot;line-height: 18px;&quot;&gt;&lt;div style=&quot;line-height: 18px;&quot;&gt;is_child&lt;/div&gt;&lt;/div&gt;&lt;/div&gt;&lt;/div&gt;" style="text;strokeColor=none;fillColor=none;align=left;verticalAlign=top;spacingLeft=4;spacingRight=4;overflow=hidden;rotatable=0;points=[[0,0.5],[1,0.5]];portConstraint=eastwest;whiteSpace=wrap;html=1;" vertex="1" parent="GQeTn8wQc1jE0vWEfusg-140">
          <mxGeometry y="428" width="160" height="26" as="geometry" />
        </mxCell>
        <mxCell id="GQeTn8wQc1jE0vWEfusg-167" value="&lt;div style=&quot;background-color: rgb(255, 255, 254); line-height: 18px;&quot;&gt;&lt;div style=&quot;line-height: 18px;&quot;&gt;&lt;div style=&quot;line-height: 18px;&quot;&gt;&lt;div style=&quot;line-height: 18px;&quot;&gt;&lt;div style=&quot;line-height: 18px;&quot;&gt;is_leaf&lt;/div&gt;&lt;/div&gt;&lt;/div&gt;&lt;/div&gt;&lt;/div&gt;" style="text;strokeColor=none;fillColor=none;align=left;verticalAlign=top;spacingLeft=4;spacingRight=4;overflow=hidden;rotatable=0;points=[[0,0.5],[1,0.5]];portConstraint=eastwest;whiteSpace=wrap;html=1;" vertex="1" parent="GQeTn8wQc1jE0vWEfusg-140">
          <mxGeometry y="454" width="160" height="26" as="geometry" />
        </mxCell>
        <mxCell id="GQeTn8wQc1jE0vWEfusg-159" value="Relationship" style="swimlane;fontStyle=1;align=center;verticalAlign=top;childLayout=stackLayout;horizontal=1;startSize=26;horizontalStack=0;resizeParent=1;resizeParentMax=0;resizeLast=0;collapsible=1;marginBottom=0;whiteSpace=wrap;html=1;" vertex="1" parent="1">
          <mxGeometry x="1300" y="942" width="260" height="202" as="geometry" />
        </mxCell>
        <mxCell id="GQeTn8wQc1jE0vWEfusg-161" value="parent {list&amp;lt;data&amp;gt; {id :11123 ,type : taxon}}&lt;div style=&quot;background-color: rgb(255, 255, 254); line-height: 18px;&quot;&gt;&lt;/div&gt;" style="text;strokeColor=none;fillColor=none;align=left;verticalAlign=top;spacingLeft=4;spacingRight=4;overflow=hidden;rotatable=0;points=[[0,0.5],[1,0.5]];portConstraint=eastwest;whiteSpace=wrap;html=1;" vertex="1" parent="GQeTn8wQc1jE0vWEfusg-159">
          <mxGeometry y="26" width="260" height="44" as="geometry" />
        </mxCell>
        <mxCell id="GQeTn8wQc1jE0vWEfusg-168" value="taxonomy {list&amp;lt;data&amp;gt; {id :10056 ,type : taxonomy}}&lt;div style=&quot;background-color: rgb(255, 255, 254); line-height: 18px;&quot;&gt;&lt;/div&gt;" style="text;strokeColor=none;fillColor=none;align=left;verticalAlign=top;spacingLeft=4;spacingRight=4;overflow=hidden;rotatable=0;points=[[0,0.5],[1,0.5]];portConstraint=eastwest;whiteSpace=wrap;html=1;" vertex="1" parent="GQeTn8wQc1jE0vWEfusg-159">
          <mxGeometry y="70" width="260" height="44" as="geometry" />
        </mxCell>
        <mxCell id="GQeTn8wQc1jE0vWEfusg-169" value="children&amp;nbsp;{list&amp;lt;data&amp;gt; {id , type : taxon}&lt;div style=&quot;background-color: rgb(255, 255, 254); line-height: 18px;&quot;&gt;&lt;/div&gt;" style="text;strokeColor=none;fillColor=none;align=left;verticalAlign=top;spacingLeft=4;spacingRight=4;overflow=hidden;rotatable=0;points=[[0,0.5],[1,0.5]];portConstraint=eastwest;whiteSpace=wrap;html=1;" vertex="1" parent="GQeTn8wQc1jE0vWEfusg-159">
          <mxGeometry y="114" width="260" height="44" as="geometry" />
        </mxCell>
        <mxCell id="GQeTn8wQc1jE0vWEfusg-170" value="image&amp;nbsp;{list&amp;lt;data&amp;gt; {id :20346&lt;span style=&quot;background-color: initial;&quot;&gt;&amp;nbsp;,type : taxon_image&lt;/span&gt;&lt;span style=&quot;background-color: initial;&quot;&gt;}}&lt;/span&gt;&lt;br&gt;&lt;div style=&quot;background-color: rgb(255, 255, 254); line-height: 18px;&quot;&gt;&lt;/div&gt;" style="text;strokeColor=none;fillColor=none;align=left;verticalAlign=top;spacingLeft=4;spacingRight=4;overflow=hidden;rotatable=0;points=[[0,0.5],[1,0.5]];portConstraint=eastwest;whiteSpace=wrap;html=1;" vertex="1" parent="GQeTn8wQc1jE0vWEfusg-159">
          <mxGeometry y="158" width="260" height="44" as="geometry" />
        </mxCell>
        <mxCell id="GQeTn8wQc1jE0vWEfusg-172" value="image" style="swimlane;fontStyle=1;align=center;verticalAlign=top;childLayout=stackLayout;horizontal=1;startSize=26;horizontalStack=0;resizeParent=1;resizeParentMax=0;resizeLast=0;collapsible=1;marginBottom=0;whiteSpace=wrap;html=1;" vertex="1" parent="1">
          <mxGeometry x="770" y="1590" width="290" height="112" as="geometry" />
        </mxCell>
        <mxCell id="GQeTn8wQc1jE0vWEfusg-173" value="+ field: Id :&amp;nbsp;11682" style="text;strokeColor=none;fillColor=none;align=left;verticalAlign=top;spacingLeft=4;spacingRight=4;overflow=hidden;rotatable=0;points=[[0,0.5],[1,0.5]];portConstraint=eastwest;whiteSpace=wrap;html=1;" vertex="1" parent="GQeTn8wQc1jE0vWEfusg-172">
          <mxGeometry y="26" width="290" height="26" as="geometry" />
        </mxCell>
        <mxCell id="GQeTn8wQc1jE0vWEfusg-174" value="+ filed: Type : taxon" style="text;strokeColor=none;fillColor=none;align=left;verticalAlign=top;spacingLeft=4;spacingRight=4;overflow=hidden;rotatable=0;points=[[0,0.5],[1,0.5]];portConstraint=eastwest;whiteSpace=wrap;html=1;" vertex="1" parent="GQeTn8wQc1jE0vWEfusg-172">
          <mxGeometry y="52" width="290" height="26" as="geometry" />
        </mxCell>
        <mxCell id="GQeTn8wQc1jE0vWEfusg-175" value="" style="line;strokeWidth=1;fillColor=none;align=left;verticalAlign=middle;spacingTop=-1;spacingLeft=3;spacingRight=3;rotatable=0;labelPosition=right;points=[];portConstraint=eastwest;strokeColor=inherit;" vertex="1" parent="GQeTn8wQc1jE0vWEfusg-172">
          <mxGeometry y="78" width="290" height="8" as="geometry" />
        </mxCell>
        <mxCell id="GQeTn8wQc1jE0vWEfusg-176" style="edgeStyle=orthogonalEdgeStyle;rounded=0;orthogonalLoop=1;jettySize=auto;html=1;" edge="1" parent="GQeTn8wQc1jE0vWEfusg-172" source="GQeTn8wQc1jE0vWEfusg-177">
          <mxGeometry relative="1" as="geometry">
            <mxPoint x="-130" y="240" as="targetPoint" />
          </mxGeometry>
        </mxCell>
        <mxCell id="GQeTn8wQc1jE0vWEfusg-177" value="+ filed: List&amp;lt;Attributes&amp;gt;" style="text;strokeColor=none;fillColor=none;align=left;verticalAlign=top;spacingLeft=4;spacingRight=4;overflow=hidden;rotatable=0;points=[[0,0.5],[1,0.5]];portConstraint=eastwest;whiteSpace=wrap;html=1;" vertex="1" parent="GQeTn8wQc1jE0vWEfusg-172">
          <mxGeometry y="86" width="290" height="26" as="geometry" />
        </mxCell>
        <mxCell id="GQeTn8wQc1jE0vWEfusg-186" value="Attribute" style="swimlane;fontStyle=1;align=center;verticalAlign=top;childLayout=stackLayout;horizontal=1;startSize=26;horizontalStack=0;resizeParent=1;resizeParentMax=0;resizeLast=0;collapsible=1;marginBottom=0;whiteSpace=wrap;html=1;" vertex="1" parent="1">
          <mxGeometry x="510" y="1830" width="260" height="166" as="geometry" />
        </mxCell>
        <mxCell id="GQeTn8wQc1jE0vWEfusg-187" value="&lt;div style=&quot;background-color: rgb(255, 255, 254); line-height: 18px;&quot;&gt;&lt;div style=&quot;line-height: 18px;&quot;&gt;&lt;div style=&quot;line-height: 18px;&quot;&gt;&lt;div style=&quot;line-height: 18px;&quot;&gt;transformed_url&lt;/div&gt;&lt;/div&gt;&lt;/div&gt;&lt;/div&gt;" style="text;strokeColor=none;fillColor=none;align=left;verticalAlign=top;spacingLeft=4;spacingRight=4;overflow=hidden;rotatable=0;points=[[0,0.5],[1,0.5]];portConstraint=eastwest;whiteSpace=wrap;html=1;" vertex="1" parent="GQeTn8wQc1jE0vWEfusg-186">
          <mxGeometry y="26" width="260" height="26" as="geometry" />
        </mxCell>
        <mxCell id="GQeTn8wQc1jE0vWEfusg-188" value="" style="line;strokeWidth=1;fillColor=none;align=left;verticalAlign=middle;spacingTop=-1;spacingLeft=3;spacingRight=3;rotatable=0;labelPosition=right;points=[];portConstraint=eastwest;strokeColor=inherit;" vertex="1" parent="GQeTn8wQc1jE0vWEfusg-186">
          <mxGeometry y="52" width="260" height="8" as="geometry" />
        </mxCell>
        <mxCell id="GQeTn8wQc1jE0vWEfusg-189" value="&lt;div style=&quot;background-color: rgb(255, 255, 254); line-height: 18px;&quot;&gt;&lt;div style=&quot;line-height: 18px;&quot;&gt;&lt;div style=&quot;line-height: 18px;&quot;&gt;&lt;div style=&quot;line-height: 18px;&quot;&gt;styles [&amp;nbsp; { url : &quot; &quot; , size , width , height&amp;nbsp; &amp;nbsp;} , { } ]&amp;nbsp;&lt;/div&gt;&lt;/div&gt;&lt;/div&gt;&lt;/div&gt;" style="text;strokeColor=none;fillColor=none;align=left;verticalAlign=top;spacingLeft=4;spacingRight=4;overflow=hidden;rotatable=0;points=[[0,0.5],[1,0.5]];portConstraint=eastwest;whiteSpace=wrap;html=1;" vertex="1" parent="GQeTn8wQc1jE0vWEfusg-186">
          <mxGeometry y="60" width="260" height="26" as="geometry" />
        </mxCell>
        <mxCell id="GQeTn8wQc1jE0vWEfusg-190" value="&lt;div style=&quot;background-color: rgb(255, 255, 254); line-height: 18px;&quot;&gt;&lt;div style=&quot;line-height: 18px;&quot;&gt;&lt;div style=&quot;line-height: 18px;&quot;&gt;&lt;div style=&quot;line-height: 18px;&quot;&gt;position&lt;/div&gt;&lt;/div&gt;&lt;/div&gt;&lt;/div&gt;" style="text;strokeColor=none;fillColor=none;align=left;verticalAlign=top;spacingLeft=4;spacingRight=4;overflow=hidden;rotatable=0;points=[[0,0.5],[1,0.5]];portConstraint=eastwest;whiteSpace=wrap;html=1;" vertex="1" parent="GQeTn8wQc1jE0vWEfusg-186">
          <mxGeometry y="86" width="260" height="26" as="geometry" />
        </mxCell>
        <mxCell id="GQeTn8wQc1jE0vWEfusg-191" value="&lt;div style=&quot;background-color: rgb(255, 255, 254); line-height: 18px;&quot;&gt;&lt;div style=&quot;line-height: 18px;&quot;&gt;&lt;div style=&quot;line-height: 18px;&quot;&gt;&lt;div style=&quot;line-height: 18px;&quot;&gt;alt&lt;/div&gt;&lt;/div&gt;&lt;/div&gt;&lt;/div&gt;" style="text;strokeColor=none;fillColor=none;align=left;verticalAlign=top;spacingLeft=4;spacingRight=4;overflow=hidden;rotatable=0;points=[[0,0.5],[1,0.5]];portConstraint=eastwest;whiteSpace=wrap;html=1;" vertex="1" parent="GQeTn8wQc1jE0vWEfusg-186">
          <mxGeometry y="112" width="260" height="28" as="geometry" />
        </mxCell>
        <mxCell id="GQeTn8wQc1jE0vWEfusg-192" value="&lt;div style=&quot;background-color: rgb(255, 255, 254); line-height: 18px;&quot;&gt;&lt;div style=&quot;line-height: 18px;&quot;&gt;&lt;div style=&quot;line-height: 18px;&quot;&gt;&lt;div style=&quot;line-height: 18px;&quot;&gt;original_url&lt;/div&gt;&lt;/div&gt;&lt;/div&gt;&lt;/div&gt;" style="text;strokeColor=none;fillColor=none;align=left;verticalAlign=top;spacingLeft=4;spacingRight=4;overflow=hidden;rotatable=0;points=[[0,0.5],[1,0.5]];portConstraint=eastwest;whiteSpace=wrap;html=1;" vertex="1" parent="GQeTn8wQc1jE0vWEfusg-186">
          <mxGeometry y="140" width="260" height="26" as="geometry" />
        </mxCell>
        <mxCell id="GQeTn8wQc1jE0vWEfusg-218" value="Meta" style="swimlane;fontStyle=1;align=center;verticalAlign=top;childLayout=stackLayout;horizontal=1;startSize=26;horizontalStack=0;resizeParent=1;resizeParentMax=0;resizeLast=0;collapsible=1;marginBottom=0;whiteSpace=wrap;html=1;" vertex="1" parent="1">
          <mxGeometry x="70" y="-610" width="290" height="130" as="geometry" />
        </mxCell>
        <mxCell id="GQeTn8wQc1jE0vWEfusg-219" value="&lt;div style=&quot;background-color: rgb(255, 255, 254); line-height: 18px;&quot;&gt;count&lt;/div&gt;" style="text;strokeColor=none;fillColor=none;align=left;verticalAlign=top;spacingLeft=4;spacingRight=4;overflow=hidden;rotatable=0;points=[[0,0.5],[1,0.5]];portConstraint=eastwest;whiteSpace=wrap;html=1;" vertex="1" parent="GQeTn8wQc1jE0vWEfusg-218">
          <mxGeometry y="26" width="290" height="26" as="geometry" />
        </mxCell>
        <mxCell id="GQeTn8wQc1jE0vWEfusg-220" value="&lt;div style=&quot;background-color: rgb(255, 255, 254); line-height: 18px;&quot;&gt;total_count&lt;/div&gt;" style="text;strokeColor=none;fillColor=none;align=left;verticalAlign=top;spacingLeft=4;spacingRight=4;overflow=hidden;rotatable=0;points=[[0,0.5],[1,0.5]];portConstraint=eastwest;whiteSpace=wrap;html=1;" vertex="1" parent="GQeTn8wQc1jE0vWEfusg-218">
          <mxGeometry y="52" width="290" height="26" as="geometry" />
        </mxCell>
        <mxCell id="GQeTn8wQc1jE0vWEfusg-223" value="&lt;div style=&quot;background-color: rgb(255, 255, 254); line-height: 18px;&quot;&gt;total_pages&lt;/div&gt;" style="text;strokeColor=none;fillColor=none;align=left;verticalAlign=top;spacingLeft=4;spacingRight=4;overflow=hidden;rotatable=0;points=[[0,0.5],[1,0.5]];portConstraint=eastwest;whiteSpace=wrap;html=1;" vertex="1" parent="GQeTn8wQc1jE0vWEfusg-218">
          <mxGeometry y="78" width="290" height="26" as="geometry" />
        </mxCell>
        <mxCell id="GQeTn8wQc1jE0vWEfusg-226" style="edgeStyle=orthogonalEdgeStyle;rounded=0;orthogonalLoop=1;jettySize=auto;html=1;" edge="1" parent="GQeTn8wQc1jE0vWEfusg-218" source="GQeTn8wQc1jE0vWEfusg-225">
          <mxGeometry relative="1" as="geometry">
            <mxPoint x="470.0000000000002" y="-70" as="targetPoint" />
          </mxGeometry>
        </mxCell>
        <mxCell id="GQeTn8wQc1jE0vWEfusg-268" style="edgeStyle=orthogonalEdgeStyle;rounded=0;orthogonalLoop=1;jettySize=auto;html=1;" edge="1" parent="GQeTn8wQc1jE0vWEfusg-218" source="GQeTn8wQc1jE0vWEfusg-225">
          <mxGeometry relative="1" as="geometry">
            <mxPoint x="-260" y="-40" as="targetPoint" />
          </mxGeometry>
        </mxCell>
        <mxCell id="GQeTn8wQc1jE0vWEfusg-225" value="&lt;div style=&quot;background-color: rgb(255, 255, 254); line-height: 18px;&quot;&gt;filters { option_types : [ ] , product_properties : [ ] }&lt;/div&gt;" style="text;strokeColor=none;fillColor=none;align=left;verticalAlign=top;spacingLeft=4;spacingRight=4;overflow=hidden;rotatable=0;points=[[0,0.5],[1,0.5]];portConstraint=eastwest;whiteSpace=wrap;html=1;" vertex="1" parent="GQeTn8wQc1jE0vWEfusg-218">
          <mxGeometry y="104" width="290" height="26" as="geometry" />
        </mxCell>
        <mxCell id="GQeTn8wQc1jE0vWEfusg-246" value="option_types" style="swimlane;fontStyle=1;align=center;verticalAlign=top;childLayout=stackLayout;horizontal=1;startSize=26;horizontalStack=0;resizeParent=1;resizeParentMax=0;resizeLast=0;collapsible=1;marginBottom=0;whiteSpace=wrap;html=1;" vertex="1" parent="1">
          <mxGeometry x="400" y="-820" width="290" height="130" as="geometry" />
        </mxCell>
        <mxCell id="GQeTn8wQc1jE0vWEfusg-247" value="&lt;div style=&quot;background-color: rgb(255, 255, 254); line-height: 18px;&quot;&gt;&lt;div style=&quot;line-height: 18px;&quot;&gt;id&lt;/div&gt;&lt;/div&gt;" style="text;strokeColor=none;fillColor=none;align=left;verticalAlign=top;spacingLeft=4;spacingRight=4;overflow=hidden;rotatable=0;points=[[0,0.5],[1,0.5]];portConstraint=eastwest;whiteSpace=wrap;html=1;" vertex="1" parent="GQeTn8wQc1jE0vWEfusg-246">
          <mxGeometry y="26" width="290" height="26" as="geometry" />
        </mxCell>
        <mxCell id="GQeTn8wQc1jE0vWEfusg-248" value="&lt;div style=&quot;background-color: rgb(255, 255, 254); line-height: 18px;&quot;&gt;&lt;div style=&quot;line-height: 18px;&quot;&gt;name&lt;/div&gt;&lt;/div&gt;" style="text;strokeColor=none;fillColor=none;align=left;verticalAlign=top;spacingLeft=4;spacingRight=4;overflow=hidden;rotatable=0;points=[[0,0.5],[1,0.5]];portConstraint=eastwest;whiteSpace=wrap;html=1;" vertex="1" parent="GQeTn8wQc1jE0vWEfusg-246">
          <mxGeometry y="52" width="290" height="26" as="geometry" />
        </mxCell>
        <mxCell id="GQeTn8wQc1jE0vWEfusg-250" value="&lt;div style=&quot;background-color: rgb(255, 255, 254); line-height: 18px;&quot;&gt;&lt;div style=&quot;line-height: 18px;&quot;&gt;presentation&lt;/div&gt;&lt;/div&gt;" style="text;strokeColor=none;fillColor=none;align=left;verticalAlign=top;spacingLeft=4;spacingRight=4;overflow=hidden;rotatable=0;points=[[0,0.5],[1,0.5]];portConstraint=eastwest;whiteSpace=wrap;html=1;" vertex="1" parent="GQeTn8wQc1jE0vWEfusg-246">
          <mxGeometry y="78" width="290" height="26" as="geometry" />
        </mxCell>
        <mxCell id="GQeTn8wQc1jE0vWEfusg-251" style="edgeStyle=orthogonalEdgeStyle;rounded=0;orthogonalLoop=1;jettySize=auto;html=1;" edge="1" parent="GQeTn8wQc1jE0vWEfusg-246" source="GQeTn8wQc1jE0vWEfusg-252">
          <mxGeometry relative="1" as="geometry">
            <mxPoint x="470.0000000000002" y="-70" as="targetPoint" />
          </mxGeometry>
        </mxCell>
        <mxCell id="GQeTn8wQc1jE0vWEfusg-252" value="&lt;div style=&quot;background-color: rgb(255, 255, 254); line-height: 18px;&quot;&gt;option_values : [&amp;nbsp; ]&lt;/div&gt;" style="text;strokeColor=none;fillColor=none;align=left;verticalAlign=top;spacingLeft=4;spacingRight=4;overflow=hidden;rotatable=0;points=[[0,0.5],[1,0.5]];portConstraint=eastwest;whiteSpace=wrap;html=1;" vertex="1" parent="GQeTn8wQc1jE0vWEfusg-246">
          <mxGeometry y="104" width="290" height="26" as="geometry" />
        </mxCell>
        <mxCell id="GQeTn8wQc1jE0vWEfusg-253" value="option_values" style="swimlane;fontStyle=1;align=center;verticalAlign=top;childLayout=stackLayout;horizontal=1;startSize=26;horizontalStack=0;resizeParent=1;resizeParentMax=0;resizeLast=0;collapsible=1;marginBottom=0;whiteSpace=wrap;html=1;" vertex="1" parent="1">
          <mxGeometry x="730" y="-1030" width="290" height="130" as="geometry" />
        </mxCell>
        <mxCell id="GQeTn8wQc1jE0vWEfusg-254" value="&lt;div style=&quot;background-color: rgb(255, 255, 254); line-height: 18px;&quot;&gt;&lt;div style=&quot;line-height: 18px;&quot;&gt;id&lt;/div&gt;&lt;/div&gt;" style="text;strokeColor=none;fillColor=none;align=left;verticalAlign=top;spacingLeft=4;spacingRight=4;overflow=hidden;rotatable=0;points=[[0,0.5],[1,0.5]];portConstraint=eastwest;whiteSpace=wrap;html=1;" vertex="1" parent="GQeTn8wQc1jE0vWEfusg-253">
          <mxGeometry y="26" width="290" height="26" as="geometry" />
        </mxCell>
        <mxCell id="GQeTn8wQc1jE0vWEfusg-255" value="&lt;div style=&quot;background-color: rgb(255, 255, 254); line-height: 18px;&quot;&gt;&lt;div style=&quot;line-height: 18px;&quot;&gt;name&lt;/div&gt;&lt;/div&gt;" style="text;strokeColor=none;fillColor=none;align=left;verticalAlign=top;spacingLeft=4;spacingRight=4;overflow=hidden;rotatable=0;points=[[0,0.5],[1,0.5]];portConstraint=eastwest;whiteSpace=wrap;html=1;" vertex="1" parent="GQeTn8wQc1jE0vWEfusg-253">
          <mxGeometry y="52" width="290" height="26" as="geometry" />
        </mxCell>
        <mxCell id="GQeTn8wQc1jE0vWEfusg-257" value="&lt;div style=&quot;background-color: rgb(255, 255, 254); line-height: 18px;&quot;&gt;&lt;div style=&quot;line-height: 18px;&quot;&gt;presentation&lt;/div&gt;&lt;/div&gt;" style="text;strokeColor=none;fillColor=none;align=left;verticalAlign=top;spacingLeft=4;spacingRight=4;overflow=hidden;rotatable=0;points=[[0,0.5],[1,0.5]];portConstraint=eastwest;whiteSpace=wrap;html=1;" vertex="1" parent="GQeTn8wQc1jE0vWEfusg-253">
          <mxGeometry y="78" width="290" height="26" as="geometry" />
        </mxCell>
        <mxCell id="GQeTn8wQc1jE0vWEfusg-259" value="&lt;div style=&quot;background-color: rgb(255, 255, 254); line-height: 18px;&quot;&gt;&lt;div style=&quot;line-height: 18px;&quot;&gt;position&lt;/div&gt;&lt;/div&gt;" style="text;strokeColor=none;fillColor=none;align=left;verticalAlign=top;spacingLeft=4;spacingRight=4;overflow=hidden;rotatable=0;points=[[0,0.5],[1,0.5]];portConstraint=eastwest;whiteSpace=wrap;html=1;" vertex="1" parent="GQeTn8wQc1jE0vWEfusg-253">
          <mxGeometry y="104" width="290" height="26" as="geometry" />
        </mxCell>
        <mxCell id="GQeTn8wQc1jE0vWEfusg-262" value="product_properties" style="swimlane;fontStyle=1;align=center;verticalAlign=top;childLayout=stackLayout;horizontal=1;startSize=26;horizontalStack=0;resizeParent=1;resizeParentMax=0;resizeLast=0;collapsible=1;marginBottom=0;whiteSpace=wrap;html=1;" vertex="1" parent="1">
          <mxGeometry x="-320" y="-700" width="290" height="52" as="geometry" />
        </mxCell>
        <mxCell id="GQeTn8wQc1jE0vWEfusg-269" value="" style="verticalLabelPosition=bottom;verticalAlign=top;html=1;shape=mxgraph.basic.smiley" vertex="1" parent="1">
          <mxGeometry x="-1560" y="-680" width="700" height="660" as="geometry" />
        </mxCell>
        <mxCell id="GQeTn8wQc1jE0vWEfusg-270" value="" style="verticalLabelPosition=bottom;verticalAlign=top;html=1;shape=mxgraph.basic.smiley" vertex="1" parent="1">
          <mxGeometry x="610" y="20" width="100" height="100" as="geometry" />
        </mxCell>
        <mxCell id="GQeTn8wQc1jE0vWEfusg-272" value="" style="verticalLabelPosition=bottom;verticalAlign=top;html=1;shape=mxgraph.basic.sun" vertex="1" parent="1">
          <mxGeometry x="-1450" y="-20" width="480" height="350" as="geometry" />
        </mxCell>
      </root>
    </mxGraphModel>
  </diagram>
</mxfile>
